<?xml version="1.0" encoding="UTF-8"?>
<svg version="1.1" xmlns="http://www.w3.org/2000/svg" width="200" height="200">
<path d="M0 0 C66 0 132 0 200 0 C200 66 200 132 200 200 C134 200 68 200 0 200 C0 134 0 68 0 0 Z " fill="#0069B6" transform="translate(0,0)"/>
<path d="M0 0 C3.61727793 2.89382235 5.85038788 4.72444596 6.64453125 9.49609375 C6.93053599 14.82376353 6.87382946 18.72319918 3.375 22.9375 C-0.17782881 26.54296331 -3.62121127 26.98056786 -8.5625 27.1875 C-13.98500472 27.15463634 -16.72787797 26.18919787 -20.60546875 22.453125 C-23.70605994 18.07818079 -23.64595003 11.86864125 -22.8125 6.75 C-20.76493544 2.99155095 -18.0604036 0.55945098 -14.5 -1.75 C-9.43396245 -2.69251861 -4.69963296 -2.08872576 0 0 Z " fill="#EBF7FC" transform="translate(64.8125,87.25)"/>
<path d="M0 0 C4.44759673 -0.53450346 8.57300006 -0.77999523 13 0 C15.93693948 2.56434268 17.38201228 5.49435993 19 9 C19.61875 10.010625 20.2375 11.02125 20.875 12.0625 C21.24625 12.701875 21.6175 13.34125 22 14 C22.33 10.37 22.66 6.74 23 3 C21.68 3 20.36 3 19 3 C19 2.01 19 1.02 19 0 C23.29 0 27.58 0 32 0 C32 0.99 32 1.98 32 3 C31.01 3.33 30.02 3.66 29 4 C28.67 11.26 28.34 18.52 28 26 C25.03 26 22.06 26 19 26 C15.7 20.06 12.4 14.12 9 8 C9 12.62 9 17.24 9 22 C9.99 22.33 10.98 22.66 12 23 C12 23.99 12 24.98 12 26 C8.04 26 4.08 26 0 26 C0 25.01 0 24.02 0 23 C1.32 23 2.64 23 4 23 C3.67 16.73 3.34 10.46 3 4 C2.01 3.67 1.02 3.34 0 3 C0 2.01 0 1.02 0 0 Z " fill="#EBFAFC" transform="translate(155,87)"/>
<path d="M0 0 C3.74985325 -0.0871747 7.49944555 -0.14045003 11.25 -0.1875 C12.31347656 -0.21263672 13.37695312 -0.23777344 14.47265625 -0.26367188 C15.49746094 -0.27333984 16.52226563 -0.28300781 17.578125 -0.29296875 C18.52075195 -0.3086792 19.46337891 -0.32438965 20.43457031 -0.34057617 C23.45640675 0.06059073 24.80475788 0.92068035 27 3 C27.69363542 5.70900134 27.47561377 8.25519281 27 11 C25.60698028 13.15918056 24.65259826 13.73412664 22.3125 14.6875 C18.86122833 15.15388806 15.48161204 15.05802687 12 15 C12 17.64 12 20.28 12 23 C13.32 23 14.64 23 16 23 C16 24.32 16 25.64 16 27 C10.72 27 5.44 27 0 27 C0 25.68 0 24.36 0 23 C0.99 22.67 1.98 22.34 3 22 C3 16.06 3 10.12 3 4 C2.01 3.67 1.02 3.34 0 3 C0 2.01 0 1.02 0 0 Z " fill="#FBFDFC" transform="translate(101,87)"/>
<path d="M0 0 C3.93736123 -0.08696177 7.87447628 -0.14037835 11.8125 -0.1875 C13.49182617 -0.22520508 13.49182617 -0.22520508 15.20507812 -0.26367188 C16.27822266 -0.27333984 17.35136719 -0.28300781 18.45703125 -0.29296875 C19.9416687 -0.31653442 19.9416687 -0.31653442 21.45629883 -0.34057617 C24 0 24 0 25.8215332 1.3972168 C27.68452012 3.93098707 27.40859036 6.08466276 27.296875 9.12890625 C27 11 27 11 25.625 12.9375 C22.51792637 14.96904814 20.56786899 15.10984447 16.875 15.0625 C15.96492188 15.05347656 15.05484375 15.04445313 14.1171875 15.03515625 C13.41851562 15.02355469 12.71984375 15.01195313 12 15 C12 17.64 12 20.28 12 23 C13.32 23 14.64 23 16 23 C16 23.99 16 24.98 16 26 C10.72 26 5.44 26 0 26 C0 25.01 0 24.02 0 23 C1.32 23 2.64 23 4 23 C4 16.4 4 9.8 4 3 C2.68 3 1.36 3 0 3 C0 2.01 0 1.02 0 0 Z " fill="#E2F7FD" transform="translate(72,87)"/>
<path d="M0 0 C2.97 0 5.94 0 9 0 C11.46979588 5.54443973 13.40711588 11.12626143 15.19335938 16.921875 C15.74136857 18.63290059 16.36502493 20.3193069 17 22 C17.66 22.33 18.32 22.66 19 23 C19 23.99 19 24.98 19 26 C14.38 26 9.76 26 5 26 C5 25.01 5 24.02 5 23 C5.99 23 6.98 23 8 23 C8 21.35 8 19.7 8 18 C5.03 18 2.06 18 -1 18 C-1 19.65 -1 21.3 -1 23 C-0.01 23 0.98 23 2 23 C2 23.99 2 24.98 2 26 C-1.96 26 -5.92 26 -10 26 C-10 24.68 -10 23.36 -10 22 C-9.01 21.67 -8.02 21.34 -7 21 C-5.98245132 19.1346755 -5.98245132 19.1346755 -5.3125 16.9375 C-5.06113281 16.20402344 -4.80976563 15.47054687 -4.55078125 14.71484375 C-4.36902344 14.14894531 -4.18726563 13.58304688 -4 13 C-3.34 13 -2.68 13 -2 13 C-1.67 11.68 -1.34 10.36 -1 9 C-0.34 9 0.32 9 1 9 C1 10.65 1 12.3 1 14 C2.32 14 3.64 14 5 14 C4.67 11.69 4.34 9.38 4 7 C2.68 7 1.36 7 0 7 C0 4.69 0 2.38 0 0 Z " fill="#E4F5FB" transform="translate(134,87)"/>
<path d="M0 0 C8.58 0 17.16 0 26 0 C26 3.3 26 6.6 26 10 C24.68 10 23.36 10 22 10 C21.731875 9.195625 21.46375 8.39125 21.1875 7.5625 C20.795625 6.716875 20.40375 5.87125 20 5 C19.01 4.67 18.02 4.34 17 4 C17 10.27 17 16.54 17 23 C17.99 23 18.98 23 20 23 C20 23.99 20 24.98 20 26 C15.05 26 10.1 26 5 26 C5 25.01 5 24.02 5 23 C5.99 22.67 6.98 22.34 8 22 C8.33 15.73 8.66 9.46 9 3 C3.85537969 5.34920863 3.85537969 5.34920863 3 9 C2.01 9 1.02 9 0 9 C0 6.03 0 3.06 0 0 Z " fill="#F8FDFC" transform="translate(14,87)"/>
<path d="M0 0 C1.65 0 3.3 0 5 0 C5 1.65 5 3.3 5 5 C5.99 5 6.98 5 8 5 C8.33 3.35 8.66 1.7 9 0 C9.33 0 9.66 0 10 0 C10 2.31 10 4.62 10 7 C11.32 7 12.64 7 14 7 C14.33 9.31 14.66 11.62 15 14 C13.68 14 12.36 14 11 14 C11 12.35 11 10.7 11 9 C10.01 9.495 10.01 9.495 9 10 C8.67 10.99 8.34 11.98 8 13 C7.34 13 6.68 13 6 13 C5.34 15.64 4.68 18.28 4 21 C2.68 21.33 1.36 21.66 0 22 C0 23.32 0 24.64 0 26 C3.96 26 7.92 26 12 26 C12 25.01 12 24.02 12 23 C11.01 23 10.02 23 9 23 C9 21.35 9 19.7 9 18 C11.97 18 14.94 18 18 18 C18 19.65 18 21.3 18 23 C17.01 23 16.02 23 15 23 C15 23.99 15 24.98 15 26 C19.62 26 24.24 26 29 26 C29 26.33 29 26.66 29 27 C18.77 27 8.54 27 -2 27 C-2 25.68 -2 24.36 -2 23 C-2.99 23 -3.98 23 -5 23 C-5 24.32 -5 25.64 -5 27 C-5.66 27 -6.32 27 -7 27 C-7 25.68 -7 24.36 -7 23 C-8.32 23 -9.64 23 -11 23 C-11 20.36 -11 17.72 -11 15 C-9.73542969 14.81824219 -9.73542969 14.81824219 -8.4453125 14.6328125 C-7.34960938 14.46523437 -6.25390625 14.29765625 -5.125 14.125 C-4.03445312 13.96257812 -2.94390625 13.80015625 -1.8203125 13.6328125 C1.11932714 13.23743487 1.11932714 13.23743487 3 11 C3.62587425 5.62881301 3.62587425 5.62881301 1.5 1 C1.005 0.67 0.51 0.34 0 0 Z " fill="#0A69B2" transform="translate(124,87)"/>
<path d="M0 0 C3.625 -0.1875 3.625 -0.1875 7 0 C8.92325647 3.2435873 9.27080868 5.68673517 9.25 9.4375 C9.25515625 10.36433594 9.2603125 11.29117188 9.265625 12.24609375 C8.98451512 15.16054176 8.21247903 17.34890497 7 20 C4.1875 20.25 4.1875 20.25 1 20 C-1.44682149 17.66129388 -1.97035686 16.25531353 -2.36328125 12.87109375 C-2.34652344 11.73800781 -2.32976563 10.60492188 -2.3125 9.4375 C-2.30863281 8.30183594 -2.30476563 7.16617188 -2.30078125 5.99609375 C-2 3 -2 3 0 0 Z " fill="#0969B3" transform="translate(53,90)"/>
<path d="M0 0 C9.57 0 19.14 0 29 0 C29 0.66 29 1.32 29 2 C30.32 2 31.64 2 33 2 C33 1.34 33 0.68 33 0 C34.32 0.33 35.64 0.66 37 1 C35.47005208 2.23697917 33.94010417 3.47395833 32.41015625 4.7109375 C30.86733563 5.9666391 30.86733563 5.9666391 30 8 C29.92883618 10.37402501 29.91590915 12.75000677 29.9375 15.125 C29.94652344 16.40632813 29.95554687 17.68765625 29.96484375 19.0078125 C29.97644531 19.99523437 29.98804687 20.98265625 30 22 C29.34 22 28.68 22 28 22 C28 19.03 28 16.06 28 13 C23.65815798 13.18464366 23.65815798 13.18464366 20 15 C19.63239269 17.32817964 19.29758419 19.6618385 19 22 C20.32 22.33 21.64 22.66 23 23 C23 24.98 23 26.96 23 29 C17.39 28.67 11.78 28.34 6 28 C6 27.67 6 27.34 6 27 C10.95 27 15.9 27 21 27 C21 26.01 21 25.02 21 24 C20.01 24 19.02 24 18 24 C18 17.73 18 11.46 18 5 C19.32 5.33 20.64 5.66 22 6 C22.33 7.65 22.66 9.3 23 11 C24.32 11 25.64 11 27 11 C27 7.7 27 4.4 27 1 C18.42 1 9.84 1 1 1 C1 3.97 1 6.94 1 10 C1.99 10 2.98 10 4 10 C4.33 9.01 4.66 8.02 5 7 C5 8.32 5 9.64 5 11 C3.35 11 1.7 11 0 11 C0 7.37 0 3.74 0 0 Z " fill="#3D84B9" transform="translate(13,86)"/>
<path d="M0 0 C6 1 6 1 7.83984375 2.69921875 C10.12811103 7.2372303 9.80965084 12.07783693 9 17 C6.79711106 21.087121 4.41139411 23.5295353 0 25 C-1.72795352 25.06802967 -3.45835365 25.08495645 -5.1875 25.0625 C-6.53908203 25.04896484 -6.53908203 25.04896484 -7.91796875 25.03515625 C-8.60503906 25.02355469 -9.29210938 25.01195313 -10 25 C-9.01 23.515 -9.01 23.515 -8 22 C-5.03 21.67 -2.06 21.34 1 21 C0.67 14.07 0.34 7.14 0 0 Z " fill="#F5FCFC" transform="translate(62,89)"/>
<path d="M0 0 C0.99 0.33 1.98 0.66 3 1 C3 3.97 3 6.94 3 10 C4.65 10 6.3 10 8 10 C8 10.66 8 11.32 8 12 C6.68 12 5.36 12 4 12 C4 14.97 4 17.94 4 21 C5.32 21 6.64 21 8 21 C8 21.99 8 22.98 8 24 C2.72 24 -2.56 24 -8 24 C-8 23.01 -8 22.02 -8 21 C-6.35 21 -4.7 21 -3 21 C-3.03480469 19.73542969 -3.06960937 18.47085938 -3.10546875 17.16796875 C-3.13360677 15.50782577 -3.16090691 13.84766844 -3.1875 12.1875 C-3.21263672 11.35412109 -3.23777344 10.52074219 -3.26367188 9.66210938 C-3.27817383 8.45844727 -3.27817383 8.45844727 -3.29296875 7.23046875 C-3.3086792 6.49207764 -3.32438965 5.75368652 -3.34057617 4.99291992 C-2.91074167 2.47769478 -1.92536938 1.60558484 0 0 Z " fill="#F6FDFD" transform="translate(80,89)"/>
<path d="M0 0 C7.92 0.33 15.84 0.66 24 1 C24 1.66 24 2.32 24 3 C16.41 3 8.82 3 1 3 C1 3.99 1 4.98 1 6 C2.32 6.33 3.64 6.66 5 7 C5 12.94 5 18.88 5 25 C4.67 25 4.34 25 4 25 C3.95101562 23.85660156 3.90203125 22.71320313 3.8515625 21.53515625 C3.77654811 20.04424527 3.70099972 18.55336108 3.625 17.0625 C3.57859375 15.93038086 3.57859375 15.93038086 3.53125 14.77539062 C3.4273685 12.84492605 3.22104386 10.92057919 3 9 C2.34 8.67 1.68 8.34 1 8 C0.67 10.64 0.34 13.28 0 16 C-0.66 16 -1.32 16 -2 16 C-1.97679687 15.30132812 -1.95359375 14.60265625 -1.9296875 13.8828125 C-1.91164062 12.97273438 -1.89359375 12.06265625 -1.875 11.125 C-1.85179687 10.22007813 -1.82859375 9.31515625 -1.8046875 8.3828125 C-1.75675164 5.81193006 -1.75675164 5.81193006 -4 4 C-6.52037964 3.62864085 -6.52037964 3.62864085 -9.4453125 3.5859375 C-11.05986328 3.52792969 -11.05986328 3.52792969 -12.70703125 3.46875 C-13.83496094 3.4378125 -14.96289062 3.406875 -16.125 3.375 C-17.82849609 3.31699219 -17.82849609 3.31699219 -19.56640625 3.2578125 C-22.37743956 3.16332399 -25.18846233 3.07776459 -28 3 C-28 3.99 -28 4.98 -28 6 C-26.68 6.33 -25.36 6.66 -24 7 C-24.48082031 7.39832031 -24.96164063 7.79664062 -25.45703125 8.20703125 C-27.37391825 10.43450247 -27.47741643 11.78834669 -27.6875 14.6875 C-27.75324219 15.49574219 -27.81898437 16.30398437 -27.88671875 17.13671875 C-27.92410156 17.75160156 -27.96148437 18.36648437 -28 19 C-28.33 19 -28.66 19 -29 19 C-29.01417969 18.41992188 -29.02835938 17.83984375 -29.04296875 17.2421875 C-29.41594034 11.13351767 -30.55238665 8.24074761 -35 4 C-37.14980497 2.62745412 -37.14980497 2.62745412 -39 2 C-39 1.67 -39 1.34 -39 1 C-37.35 1 -35.7 1 -34 1 C-33.67 1.66 -33.34 2.32 -33 3 C-32.01 3.33 -31.02 3.66 -30 4 C-29.67 3.34 -29.34 2.68 -29 2 C-19.43 2 -9.86 2 0 2 C0 1.34 0 0.68 0 0 Z " fill="#3A7EB3" transform="translate(100,84)"/>
<path d="M0 0 C2 2 2 2 2.3125 5.9375 C2.23148217 8.4220467 2.14200312 9.74105313 0.9375 11.9375 C-1.93307565 13.51168665 -4.7747472 13.69573087 -8 14 C-7.67 13.34 -7.34 12.68 -7 12 C-9.31 11.34 -11.62 10.68 -14 10 C-14 7.36 -14 4.72 -14 2 C-12.35 2 -10.7 2 -9 2 C-9 1.34 -9 0.68 -9 0 C-5.47955362 -1.17348213 -3.57539179 -0.83679382 0 0 Z " fill="#F2FAFB" transform="translate(126,88)"/>
<path d="M0 0 C1.32 0 2.64 0 4 0 C4 0.66 4 1.32 4 2 C2.68 2 1.36 2 0 2 C0.05329468 2.99181274 0.05329468 2.99181274 0.10766602 4.00366211 C0.26466247 6.98135288 0.41368634 9.95938957 0.5625 12.9375 C0.61857422 13.97841797 0.67464844 15.01933594 0.73242188 16.09179688 C0.78076172 17.08115234 0.82910156 18.07050781 0.87890625 19.08984375 C0.9260376 20.00628662 0.97316895 20.92272949 1.02172852 21.86694336 C1 24 1 24 0 25 C-1.68183948 25.23287008 -3.3712416 25.41264166 -5.0625 25.5625 C-6.44115234 25.68818359 -6.44115234 25.68818359 -7.84765625 25.81640625 C-8.55792969 25.87699219 -9.26820313 25.93757813 -10 26 C-10.680625 24.7934375 -10.680625 24.7934375 -11.375 23.5625 C-12.74725665 20.91143428 -12.74725665 20.91143428 -15 20 C-15.33 21.65 -15.66 23.3 -16 25 C-19.96 25 -23.92 25 -28 25 C-28 24.67 -28 24.34 -28 24 C-24.37 24 -20.74 24 -17 24 C-17 22.68 -17 21.36 -17 20 C-18.32 19.67 -19.64 19.34 -21 19 C-21 14.05 -21 9.1 -21 4 C-17.29267904 7.70732096 -15.50093137 11.95649306 -13.48828125 16.7265625 C-12.48131736 18.81387226 -11.64457509 20.35987271 -10 22 C-6.98006024 22.90404192 -4.14049301 23.07012669 -1 23 C-1.00785522 22.00818726 -1.00785522 22.00818726 -1.01586914 20.99633789 C-1.03657656 18.01840149 -1.04964012 15.04048018 -1.0625 12.0625 C-1.07087891 11.02158203 -1.07925781 9.98066406 -1.08789062 8.90820312 C-1.09272461 7.42416992 -1.09272461 7.42416992 -1.09765625 5.91015625 C-1.10551147 4.53549194 -1.10551147 4.53549194 -1.11352539 3.13305664 C-1 1 -1 1 0 0 Z " fill="#2170AB" transform="translate(184,90)"/>
<path d="M0 0 C1.39456452 0.00667256 2.78911118 0.01863093 4.18359375 0.03515625 C4.89451172 0.03966797 5.60542969 0.04417969 6.33789062 0.04882812 C8.09899388 0.06064761 9.86005411 0.07858362 11.62109375 0.09765625 C11.95109375 0.75765625 12.28109375 1.41765625 12.62109375 2.09765625 C7.67109375 2.09765625 2.72109375 2.09765625 -2.37890625 2.09765625 C-2.37890625 3.08765625 -2.37890625 4.07765625 -2.37890625 5.09765625 C-1.05890625 5.42765625 0.26109375 5.75765625 1.62109375 6.09765625 C1.62109375 12.36765625 1.62109375 18.63765625 1.62109375 25.09765625 C0.30109375 25.09765625 -1.01890625 25.09765625 -2.37890625 25.09765625 C-2.37890625 26.08765625 -2.37890625 27.07765625 -2.37890625 28.09765625 C-3.03890625 28.09765625 -3.69890625 28.09765625 -4.37890625 28.09765625 C-4.37890625 27.10765625 -4.37890625 26.11765625 -4.37890625 25.09765625 C-5.36890625 24.76765625 -6.35890625 24.43765625 -7.37890625 24.09765625 C-8.58203125 21.734375 -8.58203125 21.734375 -9.62890625 18.78515625 C-10.16257813 17.33689453 -10.16257813 17.33689453 -10.70703125 15.859375 C-11.38437238 13.07518791 -11.35907932 11.7428669 -10.37890625 9.09765625 C-10.04890625 10.41765625 -9.71890625 11.73765625 -9.37890625 13.09765625 C-8.71890625 13.09765625 -8.05890625 13.09765625 -7.37890625 13.09765625 C-6.71890625 15.40765625 -6.05890625 17.71765625 -5.37890625 20.09765625 C-4.38890625 19.76765625 -3.39890625 19.43765625 -2.37890625 19.09765625 C-1.71890625 15.13765625 -1.05890625 11.17765625 -0.37890625 7.09765625 C-1.36890625 7.09765625 -2.35890625 7.09765625 -3.37890625 7.09765625 C-3.76023924 5.10625065 -4.09216207 3.10486548 -4.37890625 1.09765625 C-3.37890625 0.09765625 -3.37890625 0.09765625 0 0 Z M-4.37890625 7.09765625 C-2.89390625 8.08765625 -2.89390625 8.08765625 -1.37890625 9.09765625 C-2.36890625 9.09765625 -3.35890625 9.09765625 -4.37890625 9.09765625 C-4.37890625 8.43765625 -4.37890625 7.77765625 -4.37890625 7.09765625 Z " fill="#1B6FB1" transform="translate(157.37890625,84.90234375)"/>
<path d="M0 0 C1.65 0 3.3 0 5 0 C5 1.65 5 3.3 5 5 C5.99 5 6.98 5 8 5 C8.33 3.35 8.66 1.7 9 0 C9.33 0 9.66 0 10 0 C10 2.31 10 4.62 10 7 C11.32 7 12.64 7 14 7 C14.33 9.31 14.66 11.62 15 14 C13.68 14 12.36 14 11 14 C11 12.35 11 10.7 11 9 C10.01 9.495 10.01 9.495 9 10 C8.67 10.99 8.34 11.98 8 13 C7.34 13 6.68 13 6 13 C5.34 15.64 4.68 18.28 4 21 C3.80664062 20.35546875 3.61328125 19.7109375 3.4140625 19.046875 C2.11291753 16.65648799 2.11291753 16.65648799 -1.0390625 16.390625 C-2.81410156 16.32101563 -2.81410156 16.32101563 -4.625 16.25 C-5.81351562 16.19328125 -7.00203125 16.1365625 -8.2265625 16.078125 C-9.59941406 16.03945312 -9.59941406 16.03945312 -11 16 C-11 15.67 -11 15.34 -11 15 C-9.73542969 14.81824219 -9.73542969 14.81824219 -8.4453125 14.6328125 C-7.34960938 14.46523437 -6.25390625 14.29765625 -5.125 14.125 C-4.03445312 13.96257812 -2.94390625 13.80015625 -1.8203125 13.6328125 C1.11932714 13.23743487 1.11932714 13.23743487 3 11 C3.62587425 5.62881301 3.62587425 5.62881301 1.5 1 C1.005 0.67 0.51 0.34 0 0 Z " fill="#1B6BAA" transform="translate(124,87)"/>
<path d="M0 0 C0.99 0 1.98 0 3 0 C5.99579378 3.81282845 7.51323433 7.43350543 9 12 C9.66 12.33 10.32 12.66 11 13 C11 13.99 11 14.98 11 16 C6.38 16 1.76 16 -3 16 C-3 15.01 -3 14.02 -3 13 C-2.01 13 -1.02 13 0 13 C-0.16757813 12.39671875 -0.33515625 11.7934375 -0.5078125 11.171875 C-0.71148437 10.37265625 -0.91515625 9.5734375 -1.125 8.75 C-1.33382812 7.96109375 -1.54265625 7.1721875 -1.7578125 6.359375 C-2.04314411 3.5796929 -1.44977894 2.34112451 0 0 Z " fill="#F4FBFC" transform="translate(142,97)"/>
<path d="M0 0 C0.33 0 0.66 0 1 0 C1.33 2.64 1.66 5.28 2 8 C4.31 8.66 6.62 9.32 9 10 C7 12 7 12 3.875 12.125 C2.92625 12.08375 1.9775 12.0425 1 12 C1 15.3 1 18.6 1 22 C-0.98 22 -2.96 22 -5 22 C-6.54897985 18.9020403 -5.83239539 15.73783448 -5.5625 12.375 C-5.51029297 11.66859375 -5.45808594 10.9621875 -5.40429688 10.234375 C-5.27458793 8.48920013 -5.13795046 6.74454275 -5 5 C-3.35 5.33 -1.7 5.66 0 6 C0 4.02 0 2.04 0 0 Z " fill="#F8FEFD" transform="translate(111,90)"/>
<path d="M0 0 C4.29 0 8.58 0 13 0 C13 0.99 13 1.98 13 3 C12.01 3.33 11.02 3.66 10 4 C9.67 11.26 9.34 18.52 9 26 C8.67 26 8.34 26 8 26 C7.67 23.03 7.34 20.06 7 17 C5.02 17.99 5.02 17.99 3 19 C2.67 17.35 2.34 15.7 2 14 C2.33 14 2.66 14 3 14 C3.33 10.37 3.66 6.74 4 3 C2.68 3 1.36 3 0 3 C0 2.01 0 1.02 0 0 Z " fill="#DDF4FD" transform="translate(174,87)"/>
<path d="M0 0 C8.58 0 17.16 0 26 0 C26 3.3 26 6.6 26 10 C24.68 10 23.36 10 22 10 C21.731875 9.195625 21.46375 8.39125 21.1875 7.5625 C20.795625 6.716875 20.40375 5.87125 20 5 C19.01 4.67 18.02 4.34 17 4 C17 9.94 17 15.88 17 22 C16.67 22 16.34 22 16 22 C15.97104024 18.87501937 15.95321517 15.7500731 15.9375 12.625 C15.92912109 11.73554687 15.92074219 10.84609375 15.91210938 9.9296875 C15.90888672 9.07890625 15.90566406 8.228125 15.90234375 7.3515625 C15.89710693 6.56604004 15.89187012 5.78051758 15.88647461 4.97119141 C16 3 16 3 17 1 C12.05 1 7.1 1 2 1 C1.73647686 5.73647686 1.73647686 5.73647686 3 9 C2.01 9 1.02 9 0 9 C0 6.03 0 3.06 0 0 Z " fill="#C9E8F6" transform="translate(14,87)"/>
<path d="M0 0 C0.02707139 2.24993359 0.04642829 4.49996095 0.0625 6.75 C0.07410156 8.00296875 0.08570313 9.2559375 0.09765625 10.546875 C0.02021027 13.28536501 -0.17219185 15.41880293 -1 18 C-2.9375 17.3125 -2.9375 17.3125 -5 16 C-6.09809194 12.70572419 -6.11196276 11.33588828 -5 8 C-5.66 8 -6.32 8 -7 8 C-7 6.02 -7 4.04 -7 2 C-4.35261084 0.5393715 -3.10551666 0 0 0 Z " fill="#F8FDFC" transform="translate(50,94)"/>
<path d="M0 0 C1.32 0.33 2.64 0.66 4 1 C4.33 2.65 4.66 4.3 5 6 C6.32 6.33 7.64 6.66 9 7 C7.865625 7.350625 6.73125 7.70125 5.5625 8.0625 C3.60694436 8.79385681 3.60694436 8.79385681 2 10 C0.9384058 13.58863524 0.9384058 13.58863524 1 17 C2.32 17.33 3.64 17.66 5 18 C5 19.98 5 21.96 5 24 C-0.61 23.67 -6.22 23.34 -12 23 C-12 22.67 -12 22.34 -12 22 C-7.05 22 -2.1 22 3 22 C3 21.01 3 20.02 3 19 C2.01 19 1.02 19 0 19 C0 12.73 0 6.46 0 0 Z " fill="#1367AA" transform="translate(31,91)"/>
<path d="M0 0 C2.97 0 5.94 0 9 0 C9 1.65 9 3.3 9 5 C8.01 5 7.02 5 6 5 C6 5.99 6 6.98 6 8 C10.62 8 15.24 8 20 8 C20 8.33 20 8.66 20 9 C10.43 9 0.86 9 -9 9 C-9 8.67 -9 8.34 -9 8 C-5.04 8 -1.08 8 3 8 C3 7.01 3 6.02 3 5 C2.01 5 1.02 5 0 5 C0 3.35 0 1.7 0 0 Z " fill="#3A7FB4" transform="translate(133,105)"/>
<path d="M0 0 C0.33 0 0.66 0 1 0 C1 6.6 1 13.2 1 20 C2.98 20.33 4.96 20.66 7 21 C7 17.7 7 14.4 7 11 C7.33 11 7.66 11 8 11 C8 13.64 8 16.28 8 19 C9.32 19 10.64 19 12 19 C12 20.32 12 21.64 12 23 C6.72 23 1.44 23 -4 23 C-4 21.68 -4 20.36 -4 19 C-3.01 18.67 -2.02 18.34 -1 18 C-0.505 9.09 -0.505 9.09 0 0 Z " fill="#DFFAFE" transform="translate(105,91)"/>
<path d="M0 0 C1.32 0 2.64 0 4 0 C4 5.94 4 11.88 4 18 C2.02 17.67 0.04 17.34 -2 17 C-1.855625 16.02417969 -1.71125 15.04835938 -1.5625 14.04296875 C-1.376875 12.77066406 -1.19125 11.49835938 -1 10.1875 C-0.814375 8.92292969 -0.62875 7.65835938 -0.4375 6.35546875 C0.06464492 3.06817492 0.06464492 3.06817492 0 0 Z " fill="#0E65A8" transform="translate(72,91)"/>
<path d="M0 0 C0.33 0 0.66 0 1 0 C1 1.65 1 3.3 1 5 C1.66 5 2.32 5 3 5 C3 6.65 3 8.3 3 10 C3.99 10 4.98 10 6 10 C6 10.99 6 11.98 6 13 C2.04 13 -1.92 13 -6 13 C-6 11.68 -6 10.36 -6 9 C-5.01 8.67 -4.02 8.34 -3 8 C-1.98245132 6.1346755 -1.98245132 6.1346755 -1.3125 3.9375 C-1.06113281 3.20402344 -0.80976563 2.47054687 -0.55078125 1.71484375 C-0.36902344 1.14894531 -0.18726563 0.58304687 0 0 Z " fill="#F0FDFD" transform="translate(130,100)"/>
<path d="M0 0 C0.639375 0.474375 1.27875 0.94875 1.9375 1.4375 C0.9475 1.9325 0.9475 1.9325 -0.0625 2.4375 C-1.0525 2.1075 -2.0425 1.7775 -3.0625 1.4375 C-2.89951416 2.01274414 -2.73652832 2.58798828 -2.56860352 3.18066406 C-2.07212472 5.39458107 -1.94770256 7.28423797 -1.96484375 9.546875 C-1.96806641 10.30097656 -1.97128906 11.05507812 -1.97460938 11.83203125 C-1.98298828 12.60933594 -1.99136719 13.38664062 -2 14.1875 C-2.00451172 14.98027344 -2.00902344 15.77304688 -2.01367188 16.58984375 C-2.02541435 18.53909508 -2.04334854 20.48830738 -2.0625 22.4375 C-3.0525 22.4375 -4.0425 22.4375 -5.0625 22.4375 C-4.90007813 21.72722656 -4.73765625 21.01695313 -4.5703125 20.28515625 C-4.05888531 17.41722991 -3.92940519 14.78508318 -3.9375 11.875 C-3.93492188 10.94558594 -3.93234375 10.01617187 -3.9296875 9.05859375 C-4.04940036 6.69602524 -4.39256767 4.69719237 -5.0625 2.4375 C-6.7125 2.4375 -8.3625 2.4375 -10.0625 2.4375 C-10.0625 2.1075 -10.0625 1.7775 -10.0625 1.4375 C-8.0825 1.4375 -6.1025 1.4375 -4.0625 1.4375 C-4.0625 0.7775 -4.0625 0.1175 -4.0625 -0.5625 C-9.8599423 -0.80678343 -9.8599423 -0.80678343 -15.0625 1.4375 C-15.7225 0.7775 -16.3825 0.1175 -17.0625 -0.5625 C-11.44515005 -3.64298223 -5.54242058 -2.8277656 0 0 Z " fill="#C3E3F2" transform="translate(65.0625,87.5625)"/>
<path d="M0 0 C0.99 0.33 1.98 0.66 3 1 C3 6.28 3 11.56 3 17 C1.68 16.67 0.36 16.34 -1 16 C-0.814375 15.38125 -0.62875 14.7625 -0.4375 14.125 C0.23686176 11.95839822 0.23686176 11.95839822 -1 10 C-2.98 10.33 -4.96 10.66 -7 11 C-7 10.34 -7 9.68 -7 9 C-5.02 8.67 -3.04 8.34 -1 8 C-0.67 5.36 -0.34 2.72 0 0 Z " fill="#0B67AD" transform="translate(101,92)"/>
<path d="M0 0 C0 2.64 0 5.28 0 8 C-5.625 10.125 -5.625 10.125 -9 9 C-8.34 8.34 -7.68 7.68 -7 7 C-6.83322718 3.41656024 -6.83322718 3.41656024 -7 0 C-4.3333581 -1.33332095 -2.83319697 -0.67102033 0 0 Z " fill="#F8FDFA" transform="translate(99,90)"/>
<path d="M0 0 C0.99 0 1.98 0 3 0 C3 6.27 3 12.54 3 19 C1.68 19.33 0.36 19.66 -1 20 C-1 20.99 -1 21.98 -1 23 C-1.66 23 -2.32 23 -3 23 C-3 21.35 -3 19.7 -3 18 C-1.68 18 -0.36 18 1 18 C0.85899143 15.72886197 0.71203245 13.45809275 0.5625 11.1875 C0.48128906 9.92292969 0.40007813 8.65835938 0.31640625 7.35546875 C0.12815453 4.00818107 0.12815453 4.00818107 -1 1 C-0.67 0.67 -0.34 0.34 0 0 Z " fill="#357AB1" transform="translate(20,90)"/>
<path d="M0 0 C2.875 -0.125 2.875 -0.125 6 0 C6.66 0.66 7.32 1.32 8 2 C7.44444444 6.55555556 7.44444444 6.55555556 6 8 C4.00041636 8.04080783 1.99954746 8.04254356 0 8 C0 5.36 0 2.72 0 0 Z " fill="#1E6FAE" transform="translate(84,90)"/>
<path d="M0 0 C0.99 0.33 1.98 0.66 3 1 C3.33 2.65 3.66 4.3 4 6 C2.68 6.33 1.36 6.66 0 7 C-0.33 8.32 -0.66 9.64 -1 11 C-1.33 11 -1.66 11 -2 11 C-2.33 8.69 -2.66 6.38 -3 4 C-2.01 3.67 -1.02 3.34 0 3 C0 2.01 0 1.02 0 0 Z M-18 10 C-15.70858714 9.94615479 -13.41681812 9.90727913 -11.125 9.875 C-9.21074219 9.84019531 -9.21074219 9.84019531 -7.2578125 9.8046875 C-4 10 -4 10 -2 12 C-3.9375 12.5625 -3.9375 12.5625 -6 13 C-6.33 12.67 -6.66 12.34 -7 12 C-8.84891946 11.76636119 -10.70488031 11.58696365 -12.5625 11.4375 C-13.57441406 11.35371094 -14.58632813 11.26992187 -15.62890625 11.18359375 C-16.80259766 11.09271484 -16.80259766 11.09271484 -18 11 C-18 10.67 -18 10.34 -18 10 Z " fill="#0965AD" transform="translate(38,104)"/>
<path d="M0 0 C2.66666667 0 5.33333333 0 8 0 C8 4.29 8 8.58 8 13 C3.5 7.375 3.5 7.375 1.75 3.6875 C1.41484375 2.99011719 1.0796875 2.29273437 0.734375 1.57421875 C0.49203125 1.05472656 0.2496875 0.53523438 0 0 Z " fill="#1B6DA9" transform="translate(170,90)"/>
<path d="M0 0 C1.65 0 3.3 0 5 0 C5 0.99 5 1.98 5 3 C6.32 3.33 7.64 3.66 9 4 C9 9.94 9 15.88 9 22 C8.67 22 8.34 22 8 22 C7.95101562 20.85660156 7.90203125 19.71320313 7.8515625 18.53515625 C7.77654811 17.04424527 7.70099972 15.55336108 7.625 14.0625 C7.5940625 13.30775391 7.563125 12.55300781 7.53125 11.77539062 C7.4273685 9.84492605 7.22104386 7.92057919 7 6 C6.34 5.67 5.68 5.34 5 5 C4.67 7.64 4.34 10.28 4 13 C3.34 13 2.68 13 2 13 C2.02320312 12.31292969 2.04640625 11.62585938 2.0703125 10.91796875 C2.08835937 10.01691406 2.10640625 9.11585937 2.125 8.1875 C2.14820312 7.29417969 2.17140625 6.40085937 2.1953125 5.48046875 C2.18285827 2.74597286 2.18285827 2.74597286 0 0 Z " fill="#4484B5" transform="translate(96,87)"/>
<path d="M0 0 C3.75 0.25 3.75 0.25 7 1 C7 1.33 7 1.66 7 2 C5.35 2 3.7 2 2 2 C1.67 3.32 1.34 4.64 1 6 C1 5.01 1 4.02 1 3 C-1.18153844 3.81562924 -1.18153844 3.81562924 -1.8125 6 C-3 8 -3 8 -5.5625 8.8125 C-6.366875 8.874375 -7.17125 8.93625 -8 9 C-8.33 8.67 -8.66 8.34 -9 8 C-11.32817964 7.63239269 -13.6618385 7.29758419 -16 7 C-16 6.67 -16 6.34 -16 6 C-15.18015625 5.90203125 -14.3603125 5.8040625 -13.515625 5.703125 C-12.43796875 5.55359375 -11.3603125 5.4040625 -10.25 5.25 C-9.18265625 5.11078125 -8.1153125 4.9715625 -7.015625 4.828125 C-3.55991501 3.87914765 -2.43926163 2.52194846 0 0 Z " fill="#2B79B6" transform="translate(69,108)"/>
<path d="M0 0 C1.65 0 3.3 0 5 0 C5.33 0.66 5.66 1.32 6 2 C6.99 2.33 7.98 2.66 9 3 C9.66 2.34 10.32 1.68 11 1 C11 2.32 11 3.64 11 5 C12.32 5.33 13.64 5.66 15 6 C14.51917969 6.39832031 14.03835937 6.79664062 13.54296875 7.20703125 C11.62608175 9.43450247 11.52258357 10.78834669 11.3125 13.6875 C11.24675781 14.49574219 11.18101563 15.30398437 11.11328125 16.13671875 C11.07589844 16.75160156 11.03851563 17.36648437 11 18 C10.67 18 10.34 18 10 18 C9.98582031 17.41992188 9.97164062 16.83984375 9.95703125 16.2421875 C9.58405966 10.13351767 8.44761335 7.24074761 4 3 C1.85019503 1.62745412 1.85019503 1.62745412 0 1 C0 0.67 0 0.34 0 0 Z " fill="#2474AF" transform="translate(61,85)"/>
<path d="M0 0 C2.64 0 5.28 0 8 0 C8 6.93 8 13.86 8 21 C7.67 21 7.34 21 7 21 C7 14.73 7 8.46 7 2 C4.525 3.485 4.525 3.485 2 5 C1.34 5 0.68 5 0 5 C-0.33 5.66 -0.66 6.32 -1 7 C-0.67 4.69 -0.34 2.38 0 0 Z " fill="#E9F9FE" transform="translate(16,88)"/>
<path d="M0 0 C1.99954746 -0.04254356 4.00041636 -0.04080783 6 0 C7 1 7 1 7.125 3.5 C7 6 7 6 6 7 C4.00041636 7.04080783 1.99954746 7.04254356 0 7 C0 4.69 0 2.38 0 0 Z " fill="#0967AF" transform="translate(113,91)"/>
<path d="M0 0 C2.97 0 5.94 0 9 0 C9.33 1.65 9.66 3.3 10 5 C7.50935112 5.68707555 5.62113708 6 3 6 C2.67 4.68 2.34 3.36 2 2 C1.34 2 0.68 2 0 2 C0 1.34 0 0.68 0 0 Z " fill="#FAFCFA" transform="translate(158,88)"/>
<path d="M0 0 C0.33 0.66 0.66 1.32 1 2 C-1.97 1.505 -1.97 1.505 -5 1 C-4.67 1.99 -4.34 2.98 -4 4 C-4.27571139 6.00875442 -4.60235737 8.01178687 -5 10 C-5.66 9.67 -6.32 9.34 -7 9 C-7 7.35 -7 5.7 -7 4 C-9.97 3.505 -9.97 3.505 -13 3 C-13 5.31 -13 7.62 -13 10 C-13.33 10 -13.66 10 -14 10 C-14 7.36 -14 4.72 -14 2 C-12.35 2 -10.7 2 -9 2 C-9 1.34 -9 0.68 -9 0 C-5.49270578 -1.16909807 -3.55692677 -0.85056945 0 0 Z " fill="#B5DAED" transform="translate(126,88)"/>
<path d="M0 0 C0.33 1.32 0.66 2.64 1 4 C2.32 4 3.64 4 5 4 C5.33 6.31 5.66 8.62 6 11 C4.68 11 3.36 11 2 11 C2 9.35 2 7.7 2 6 C-0.33075929 6.95865509 -0.33075929 6.95865509 -2 10 C-1.54177532 6.53058454 -1.10868317 3.32604951 0 0 Z " fill="#C4E3F2" transform="translate(133,90)"/>
<path d="M0 0 C0.33 0 0.66 0 1 0 C1 3.63 1 7.26 1 11 C1.66 11 2.32 11 3 11 C3.33 12.65 3.66 14.3 4 16 C4.99 16 5.98 16 7 16 C7.33 14.68 7.66 13.36 8 12 C8.66 12 9.32 12 10 12 C9.67 13.65 9.34 15.3 9 17 C6.1875 17.25 6.1875 17.25 3 17 C0.4782163 14.61831539 0.0223716 13.24698247 -0.29296875 9.765625 C-0.24076172 8.02539062 -0.24076172 8.02539062 -0.1875 6.25 C-0.16042969 5.07953125 -0.13335937 3.9090625 -0.10546875 2.703125 C-0.07066406 1.81109375 -0.03585938 0.9190625 0 0 Z " fill="#246FAB" transform="translate(51,93)"/>
<path d="M0 0 C0.33 0 0.66 0 1 0 C1 3.63 1 7.26 1 11 C2.65 11 4.3 11 6 11 C6 9.35 6 7.7 6 6 C6.33 6 6.66 6 7 6 C7.125 8.875 7.125 8.875 7 12 C6.34 12.66 5.68 13.32 5 14 C1.875 13.625 1.875 13.625 -1 13 C-1.02686553 11.02090602 -1.04633375 9.04171029 -1.0625 7.0625 C-1.07410156 5.96035156 -1.08570313 4.85820313 -1.09765625 3.72265625 C-1 1 -1 1 0 0 Z " fill="#1367A8" transform="translate(12,86)"/>
<path d="M0 0 C0.33 0 0.66 0 1 0 C1 6.27 1 12.54 1 19 C-0.32 19 -1.64 19 -3 19 C-3 19.99 -3 20.98 -3 22 C-3.66 22 -4.32 22 -5 22 C-5 21.01 -5 20.02 -5 19 C-5.99 18.67 -6.98 18.34 -8 18 C-8 17.67 -8 17.34 -8 17 C-5.36 17 -2.72 17 0 17 C0 11.39 0 5.78 0 0 Z " fill="#578FBB" transform="translate(158,91)"/>
<path d="M0 0 C6.27 0 12.54 0 19 0 C18.01 0.33 17.02 0.66 16 1 C16 1.66 16 2.32 16 3 C14.35 3 12.7 3 11 3 C11 2.34 11 1.68 11 1 C9.02 1.33 7.04 1.66 5 2 C5 2.66 5 3.32 5 4 C3.35 3.67 1.7 3.34 0 3 C0 2.01 0 1.02 0 0 Z " fill="#E9FDFE" transform="translate(101,87)"/>
<path d="M0 0 C1 1 2 2 3 3 C5.05396726 2.59070014 5.05396726 2.59070014 7 2 C7 2.66 7 3.32 7 4 C3.78817851 5.90608098 1.46117397 6.22266247 -2.25 6.125 C-3.14203125 6.10695313 -4.0340625 6.08890625 -4.953125 6.0703125 C-5.96632813 6.03550781 -5.96632813 6.03550781 -7 6 C-5.68 5.67 -4.36 5.34 -3 5 C-3 4.34 -3 3.68 -3 3 C-4.32 2.67 -5.64 2.34 -7 2 C-4.69 1.34 -2.38 0.68 0 0 Z " fill="#D8F1FC" transform="translate(91,96)"/>
<path d="M0 0 C0.5775 0.78375 1.155 1.5675 1.75 2.375 C3.82897637 4.80047244 5.09040333 5.85694417 8 7 C5.34771188 8.07525194 2.71631546 9.09456151 0 10 C-0.66 9.34 -1.32 8.68 -2 8 C-1.7578125 6.0546875 -1.7578125 6.0546875 -1.125 3.875 C-0.92132813 3.15054688 -0.71765625 2.42609375 -0.5078125 1.6796875 C-0.34023438 1.12539062 -0.17265625 0.57109375 0 0 Z " fill="#EEF6FA" transform="translate(50,104)"/>
<path d="M0 0 C0.33 0 0.66 0 1 0 C1 2.64 1 5.28 1 8 C2.32 8 3.64 8 5 8 C5 9.32 5 10.64 5 12 C-0.28 12 -5.56 12 -11 12 C-11 11.67 -11 11.34 -11 11 C-5.06 10.505 -5.06 10.505 1 10 C0.67 9.67 0.34 9.34 0 9 C-0.07179964 7.48071962 -0.08392007 5.95832518 -0.0625 4.4375 C-0.05347656 3.61121094 -0.04445313 2.78492187 -0.03515625 1.93359375 C-0.02355469 1.29550781 -0.01195313 0.65742187 0 0 Z " fill="#9ECBE7" transform="translate(112,102)"/>
<path d="M0 0 C2.74573403 2.24650966 3.90279382 3.37886899 4.4609375 6.9453125 C4.43257813 7.99460937 4.40421875 9.04390625 4.375 10.125 C4.36210938 11.17945312 4.34921875 12.23390625 4.3359375 13.3203125 C4 16 4 16 2 18 C1.93941406 17.03578125 1.87882812 16.0715625 1.81640625 15.078125 C1.73261719 13.81484375 1.64882812 12.5515625 1.5625 11.25 C1.48128906 9.99703125 1.40007812 8.7440625 1.31640625 7.453125 C1.07484478 4.81682447 0.75716066 2.51962706 0 0 Z " fill="#CEEBF9" transform="translate(67,90)"/>
<path d="M0 0 C2 1.3125 2 1.3125 4 3 C4 3.99 4 4.98 4 6 C-0.62 6 -5.24 6 -10 6 C-10 5.01 -10 4.02 -10 3 C-7.03 3.33 -4.06 3.66 -1 4 C-0.67 2.68 -0.34 1.36 0 0 Z " fill="#E1FAFE" transform="translate(149,107)"/>
<path d="M0 0 C2.64 0 5.28 0 8 0 C7.34 1.32 6.68 2.64 6 4 C4.68 4 3.36 4 2 4 C1.67 4.66 1.34 5.32 1 6 C1.66 6.33 2.32 6.66 3 7 C2.01 7 1.02 7 0 7 C0 4.69 0 2.38 0 0 Z " fill="#1263A3" transform="translate(84,102)"/>
<path d="M0 0 C1.65 0 3.3 0 5 0 C5 1.65 5 3.3 5 5 C5.99 5 6.98 5 8 5 C8.33 3.35 8.66 1.7 9 0 C10.39195915 4.17587745 8.82323219 6.13474776 7 10 C4.98030515 7.42947929 3.45745023 4.91490045 2 2 C1.34 1.34 0.68 0.68 0 0 Z " fill="#1768AA" transform="translate(124,87)"/>
<path d="M0 0 C1.65 0 3.3 0 5 0 C5 1.98 5 3.96 5 6 C-0.61 5.67 -6.22 5.34 -12 5 C-12 4.67 -12 4.34 -12 4 C-7.05 4 -2.1 4 3 4 C3 3.01 3 2.02 3 1 C2.01 0.67 1.02 0.34 0 0 Z " fill="#4D8EBF" transform="translate(31,109)"/>
<path d="M0 0 C2 2 2 2 2.1953125 4.8203125 C2.16050781 6.45613281 2.16050781 6.45613281 2.125 8.125 C2.10695312 9.22070312 2.08890625 10.31640625 2.0703125 11.4453125 C2.04710937 12.28835937 2.02390625 13.13140625 2 14 C2.99 14 3.98 14 5 14 C5 15.65 5 17.3 5 19 C4.67 18.01 4.34 17.02 4 16 C2.68 15.67 1.36 15.34 0 15 C0 10.05 0 5.1 0 0 Z " fill="#5990BA" transform="translate(163,94)"/>
<path d="M0 0 C0.33 1.32 0.66 2.64 1 4 C5.95 4 10.9 4 16 4 C16 4.33 16 4.66 16 5 C10.06 5.33 4.12 5.66 -2 6 C-2 4.35 -2 2.7 -2 1 C-1.34 0.67 -0.68 0.34 0 0 Z " fill="#1367AA" transform="translate(100,110)"/>
<path d="M0 0 C0.33 0.66 0.66 1.32 1 2 C3.35599235 2.46751788 3.35599235 2.46751788 6.0625 2.625 C7.44115234 2.73714844 7.44115234 2.73714844 8.84765625 2.8515625 C9.55792969 2.90054688 10.26820312 2.94953125 11 3 C11.33 2.34 11.66 1.68 12 1 C12 1.99 12 2.98 12 4 C7.05 4 2.1 4 -3 4 C-3 3.01 -3 2.02 -3 1 C-2.01 0.67 -1.02 0.34 0 0 Z " fill="#E3FDFE" transform="translate(22,109)"/>
<path d="M0 0 C1.2380014 3.57644848 0.74926071 6.33694766 0 10 C0.66 10 1.32 10 2 10 C2 12.31 2 14.62 2 17 C0 16 0 16 -0.6171875 14.2578125 C-1.0408925 11.75881769 -1.13256512 9.40931595 -1.125 6.875 C-1.12757812 6.00617188 -1.13015625 5.13734375 -1.1328125 4.2421875 C-1 2 -1 2 0 0 Z " fill="#D1ECF8" transform="translate(43,92)"/>
<path d="M0 0 C0.99 0.495 0.99 0.495 2 1 C2 1.99 2 2.98 2 4 C2.66 4 3.32 4 4 4 C4 6.97 4 9.94 4 13 C0 5 0 5 0 0 Z " fill="#2875AE" transform="translate(146,94)"/>
<path d="M0 0 C0.66 0 1.32 0 2 0 C1.125 6.75 1.125 6.75 0 9 C-0.66 9 -1.32 9 -2 9 C-1.125 1.125 -1.125 1.125 0 0 Z " fill="#F6FDFC" transform="translate(133,96)"/>
<path d="M0 0 C0.66 0 1.32 0 2 0 C2.33 1.98 2.66 3.96 3 6 C3.66 6 4.32 6 5 6 C4.67 6.99 4.34 7.98 4 9 C3.01 8.67 2.02 8.34 1 8 C0.67 5.36 0.34 2.72 0 0 Z " fill="#0567B4" transform="translate(164,100)"/>
<path d="M0 0 C4.51617599 -0.07654536 8.59085217 -0.10228696 13 1 C12.67 1.66 12.34 2.32 12 3 C9.67843403 3.40729228 7.3431213 3.74438677 5 4 C5.33 3.34 5.66 2.68 6 2 C3.03 1.505 3.03 1.505 0 1 C0 0.67 0 0.34 0 0 Z " fill="#DBF2FC" transform="translate(113,98)"/>
<path d="M0 0 C0.33 0 0.66 0 1 0 C1 1.98 1 3.96 1 6 C1.99 6 2.98 6 4 6 C4 5.01 4 4.02 4 3 C4.66 3 5.32 3 6 3 C6.33 2.34 6.66 1.68 7 1 C7.042721 2.66611905 7.04063832 4.33382885 7 6 C6 7 6 7 2.9375 7.0625 C1.4834375 7.0315625 1.4834375 7.0315625 0 7 C0 4.69 0 2.38 0 0 Z " fill="#1968A3" transform="translate(113,91)"/>
<path d="M0 0 C0.33 0 0.66 0 1 0 C1 1.65 1 3.3 1 5 C1.66 5 2.32 5 3 5 C3 6.65 3 8.3 3 10 C2.67 9.01 2.34 8.02 2 7 C0.68 7.33 -0.64 7.66 -2 8 C-1.34 5.36 -0.68 2.72 0 0 Z " fill="#D0EAF7" transform="translate(130,100)"/>
<path d="M0 0 C0.66 0 1.32 0 2 0 C1.67 1.98 1.34 3.96 1 6 C-1.64 5.67 -4.28 5.34 -7 5 C-6.401875 4.731875 -5.80375 4.46375 -5.1875 4.1875 C-2.95672092 3.1106021 -2.95672092 3.1106021 -1.375 1.375 C-0.694375 0.694375 -0.694375 0.694375 0 0 Z " fill="#0C67AC" transform="translate(60,80)"/>
<path d="M0 0 C2.61724095 2.36797991 4.32861729 4.89600354 6 8 C6 8.66 6 9.32 6 10 C5.01 10 4.02 10 3 10 C2.67 8.02 2.34 6.04 2 4 C1.34 4 0.68 4 0 4 C0 2.68 0 1.36 0 0 Z " fill="#2F74AB" transform="translate(164,96)"/>
<path d="M0 0 C0.33 0 0.66 0 1 0 C1 4.62 1 9.24 1 14 C0.01 14 -0.98 14 -2 14 C-1.84660156 13.44828125 -1.69320312 12.8965625 -1.53515625 12.328125 C-0.95329729 9.79682617 -0.67564555 7.33558028 -0.4375 4.75 C-0.35371094 3.85796875 -0.26992187 2.9659375 -0.18359375 2.046875 C-0.12300781 1.37140625 -0.06242188 0.6959375 0 0 Z " fill="#C8E6F6" transform="translate(178,91)"/>
<path d="M0 0 C0.99 0 1.98 0 3 0 C2.67 1.98 2.34 3.96 2 6 C1.01 6 0.02 6 -1 6 C-1.042721 4.33388095 -1.04063832 2.66617115 -1 1 C-0.67 0.67 -0.34 0.34 0 0 Z " fill="#F7FCFC" transform="translate(135,88)"/>
<path d="M0 0 C0.66 0 1.32 0 2 0 C2 2.97 2 5.94 2 9 C1.34 9 0.68 9 0 9 C-0.87890625 2.84765625 -0.87890625 2.84765625 -1 1 C-0.67 0.67 -0.34 0.34 0 0 Z " fill="#0168BA" transform="translate(73,93)"/>
<path d="M0 0 C0.33 0 0.66 0 1 0 C1 2.64 1 5.28 1 8 C-0.32 8 -1.64 8 -3 8 C-3.33 6.35 -3.66 4.7 -4 3 C-3.01 3.33 -2.02 3.66 -1 4 C-0.67 2.68 -0.34 1.36 0 0 Z " fill="#D8F5FE" transform="translate(39,89)"/>
<path d="M0 0 C2 2 2 2 2.125 4.625 C2.08375 5.40875 2.0425 6.1925 2 7 C0.68 7 -0.64 7 -2 7 C-1.34 4.69 -0.68 2.38 0 0 Z " fill="#3673A3" transform="translate(137,94)"/>
<path d="M0 0 C0.99 0 1.98 0 3 0 C3 2.31 3 4.62 3 7 C1.68 6.01 0.36 5.02 -1 4 C-0.67 2.68 -0.34 1.36 0 0 Z " fill="#F9FCFB" transform="translate(36,88)"/>
<path d="M0 0 C1.98 0.66 3.96 1.32 6 2 C3.33333333 3.33333333 0.66666667 4.66666667 -2 6 C-2.66 5.34 -3.32 4.68 -4 4 C-2.68 4 -1.36 4 0 4 C0 2.68 0 1.36 0 0 Z " fill="#C0DFF1" transform="translate(52,108)"/>
<path d="M0 0 C2.64 0 5.28 0 8 0 C7.01 0.33 6.02 0.66 5 1 C5 2.32 5 3.64 5 5 C4.34 5 3.68 5 3 5 C3 4.01 3 3.02 3 2 C2.01 1.67 1.02 1.34 0 1 C0 0.67 0 0.34 0 0 Z " fill="#377AAD" transform="translate(150,108)"/>
<path d="M0 0 C1.5625 1.8125 1.5625 1.8125 3 4 C2.67 4.99 2.34 5.98 2 7 C0.35 7.33 -1.3 7.66 -3 8 C-2.34 7.01 -1.68 6.02 -1 5 C-0.61500109 3.34450469 -0.27206865 1.6777567 0 0 Z " fill="#2C78B1" transform="translate(128,93)"/>
<path d="M0 0 C0.99 0 1.98 0 3 0 C2.25 1.9375 2.25 1.9375 1 4 C-1.125 4.75 -1.125 4.75 -3 5 C-1.125 1.125 -1.125 1.125 0 0 Z " fill="#E5F8FD" transform="translate(47,88)"/>
<path d="M0 0 C2 3.875 2 3.875 2 5 C0.35 5 -1.3 5 -3 5 C-3 3.68 -3 2.36 -3 1 C-2.01 0.67 -1.02 0.34 0 0 Z " fill="#C3E5F3" transform="translate(127,108)"/>
<path d="M0 0 C0.33 0 0.66 0 1 0 C1 2.64 1 5.28 1 8 C0.34 8 -0.32 8 -1 8 C-1.625 5.6875 -1.625 5.6875 -2 3 C-1.34 2.01 -0.68 1.02 0 0 Z " fill="#EEF9FD" transform="translate(98,90)"/>
</svg>
