<?xml version="1.0" encoding="UTF-8"?>
<svg version="1.1" xmlns="http://www.w3.org/2000/svg" width="613" height="613">
<path d="M0 0 C202.29 0 404.58 0 613 0 C613 202.29 613 404.58 613 613 C410.71 613 208.42 613 0 613 C0 410.71 0 208.42 0 0 Z " fill="#000000" transform="translate(0,0)"/>
<path d="M0 0 C1.26108078 0.00022659 2.52216156 0.00045319 3.82145691 0.00068665 C5.19778803 0.01600655 6.57411553 0.03165453 7.95043945 0.04760742 C9.35862273 0.05320357 10.76681185 0.05747358 12.17500305 0.06047058 C15.87904014 0.07191799 19.5827236 0.10138383 23.28662109 0.13458252 C27.06709001 0.16528591 30.84761614 0.17897646 34.62817383 0.1940918 C42.04435057 0.22625401 49.46023606 0.27744862 56.8762207 0.34057617 C55.78210444 3.62292495 55.10951593 4.21292332 52.51879883 6.33009338 C46.9152431 11.09033373 41.78024883 16.30443087 36.5949707 21.50830078 C35.48071941 22.62283467 34.36624683 23.73714737 33.25157166 24.85125732 C30.24783264 27.8547112 27.24717165 30.86122286 24.24708176 33.86832118 C21.10321081 37.01847309 17.95647918 40.16576484 14.81005859 43.31336975 C8.86197333 49.2645544 2.91644027 55.21828198 -3.02816486 61.1729427 C-11.06809737 69.22617764 -19.11199744 77.27544757 -27.15566826 85.32494831 C-39.81493665 97.99359981 -52.46892273 110.66751409 -65.1237793 123.34057617 C-24.5337793 123.67057617 16.0562207 124.00057617 57.8762207 124.34057617 C57.8762207 161.63057617 57.8762207 198.92057617 57.8762207 237.34057617 C37.0862207 237.34057617 16.2962207 237.34057617 -5.1237793 237.34057617 C-5.1237793 216.88057617 -5.1237793 196.42057617 -5.1237793 175.34057617 C-46.0437793 175.34057617 -86.9637793 175.34057617 -129.1237793 175.34057617 C-129.1237793 158.18057617 -129.1237793 141.02057617 -129.1237793 123.34057617 C-127.4737793 122.02057617 -125.8237793 120.70057617 -124.1237793 119.34057617 C-122.26491842 117.29582921 -120.52412839 115.1839883 -118.7722168 113.04760742 C-117.1237793 111.34057617 -117.1237793 111.34057617 -114.1237793 110.34057617 C-113.8556543 109.78370117 -113.5875293 109.22682617 -113.3112793 108.65307617 C-111.5909363 105.30293455 -109.03802642 102.71632111 -106.1237793 100.34057617 C-105.4637793 100.34057617 -104.8037793 100.34057617 -104.1237793 100.34057617 C-103.4637793 99.02057617 -102.8037793 97.70057617 -102.1237793 96.34057617 C-101.4637793 96.34057617 -100.8037793 96.34057617 -100.1237793 96.34057617 C-99.6287793 94.85557617 -99.6287793 94.85557617 -99.1237793 93.34057617 C-98.4637793 93.34057617 -97.8037793 93.34057617 -97.1237793 93.34057617 C-96.8556543 92.74245117 -96.5875293 92.14432617 -96.3112793 91.52807617 C-95.12460523 89.34209764 -94.02778817 87.92725023 -92.1237793 86.34057617 C-91.4637793 86.34057617 -90.8037793 86.34057617 -90.1237793 86.34057617 C-90.1237793 85.68057617 -90.1237793 85.02057617 -90.1237793 84.34057617 C-89.4637793 84.34057617 -88.8037793 84.34057617 -88.1237793 84.34057617 C-87.4637793 83.02057617 -86.8037793 81.70057617 -86.1237793 80.34057617 C-85.4637793 80.34057617 -84.8037793 80.34057617 -84.1237793 80.34057617 C-83.6287793 78.85557617 -83.6287793 78.85557617 -83.1237793 77.34057617 C-80.87399789 74.84757516 -78.9761167 72.75456862 -75.9362793 71.27807617 C-73.59516998 70.06715756 -73.08306804 68.73879803 -72.1237793 66.34057617 C-71.4637793 66.34057617 -70.8037793 66.34057617 -70.1237793 66.34057617 C-69.8969043 65.78370117 -69.6700293 65.22682617 -69.4362793 64.65307617 C-67.75659095 61.69362527 -65.58244644 59.67930834 -63.1237793 57.34057617 C-62.5669043 56.74245117 -62.0100293 56.14432617 -61.4362793 55.52807617 C-60.1237793 54.34057617 -60.1237793 54.34057617 -58.1237793 54.34057617 C-57.7937793 53.35057617 -57.4637793 52.36057617 -57.1237793 51.34057617 C-55.50274962 49.62948929 -53.82874467 47.96804311 -52.1237793 46.34057617 C-51.2781543 45.49495117 -50.4325293 44.64932617 -49.5612793 43.77807617 C-48.7569043 42.97370117 -47.9525293 42.16932617 -47.1237793 41.34057617 C-46.4019043 40.57745117 -45.6800293 39.81432617 -44.9362793 39.02807617 C-43.1237793 37.34057617 -43.1237793 37.34057617 -41.1237793 37.34057617 C-40.7937793 36.35057617 -40.4637793 35.36057617 -40.1237793 34.34057617 C-39.4637793 34.34057617 -38.8037793 34.34057617 -38.1237793 34.34057617 C-37.8969043 33.78370117 -37.6700293 33.22682617 -37.4362793 32.65307617 C-35.16777481 28.65618731 -32.50477984 25.80090969 -28.1237793 24.34057617 C-27.8350293 23.76307617 -27.5462793 23.18557617 -27.2487793 22.59057617 C-25.73311014 19.55923787 -23.56878363 17.66915172 -21.1237793 15.34057617 C-20.4019043 14.57745117 -19.6800293 13.81432617 -18.9362793 13.02807617 C-17.1237793 11.34057617 -17.1237793 11.34057617 -15.1237793 11.34057617 C-14.7937793 10.35057617 -14.4637793 9.36057617 -14.1237793 8.34057617 C-12.50038125 6.63173612 -10.83058877 4.966109 -9.1237793 3.34057617 C-8.70094162 2.80103806 -8.27810394 2.26149994 -7.842453 1.70561218 C-5.27915519 -0.33025641 -3.23784189 -0.01938827 0 0 Z " fill="#F0F0F0" transform="translate(208.123779296875,141.659423828125)"/>
<path d="M0 0 C41.25 0 82.5 0 125 0 C125.165 10.250625 125.33 20.50125 125.5 31.0625 C125.57283203 34.28781494 125.64566406 37.51312988 125.72070312 40.83618164 C125.74407546 43.40247944 125.76445947 45.96880695 125.78125 48.53515625 C125.80215698 49.1944664 125.82306396 49.85377655 125.84460449 50.5330658 C126.1672032 61.25095355 126.1672032 61.25095355 123.60728455 65.0869751 C121.51849749 66.95128283 119.32998298 68.44741353 117 70 C115.03501988 71.5758051 113.08651308 73.17226852 111.15063477 74.78369141 C110.62030293 75.21949492 110.0899711 75.65529844 109.54356861 76.10430813 C102.69912595 81.73890813 96.08121379 87.61782205 89.5625 93.625 C88.93310265 94.20442604 88.30370529 94.78385208 87.65523529 95.38083649 C71.85012558 110.07245928 60.13661055 123.14181437 58.95417786 145.39181519 C58.53269884 158.61714587 59.82873098 171.9725895 62 185 C62.66 185 63.32 185 64 185 C64.2578125 184.41734375 64.515625 183.8346875 64.78125 183.234375 C66.09834017 180.8197097 67.55088384 179.18259823 69.5 177.25 C70.1084375 176.63640625 70.716875 176.0228125 71.34375 175.390625 C73 174 73 174 75 174 C75.33 173.01 75.66 172.02 76 171 C76.66 171 77.32 171 78 171 C78.268125 170.401875 78.53625 169.80375 78.8125 169.1875 C79.99917406 167.00152146 81.09599113 165.58667406 83 164 C83.66 164 84.32 164 85 164 C85.2475 163.38125 85.495 162.7625 85.75 162.125 C87.23740369 159.59641373 88.43678009 159.28160996 91 158 C92.09166275 156.06669397 92.09166275 156.06669397 93 154 C94.5 152.25 94.5 152.25 96 151 C96.66 151 97.32 151 98 151 C98.2475 150.38125 98.495 149.7625 98.75 149.125 C100.23740369 146.59641373 101.43678009 146.28160996 104 145 C105.09166275 143.06669397 105.09166275 143.06669397 106 141 C107.5 139.25 107.5 139.25 109 138 C109.66 138 110.32 138 111 138 C111.226875 137.44828125 111.45375 136.8965625 111.6875 136.328125 C113.38725926 133.31307583 115.54804816 131.18769631 118 128.75 C118.886875 127.85796875 119.77375 126.9659375 120.6875 126.046875 C123 124 123 124 125 124 C125 144.79 125 165.58 125 187 C83.42 187 41.84 187 -1 187 C-1 124 -1 124 14 109 C14.66 109 15.32 109 16 109 C16.20625 108.46375 16.4125 107.9275 16.625 107.375 C18.53250426 104.08021991 21.04819384 101.40636372 24 99 C24.66 99 25.32 99 26 99 C26.34224609 98.17097168 26.34224609 98.17097168 26.69140625 97.32519531 C28.37845518 94.32753597 30.50812518 92.2323494 32.9375 89.796875 C33.41823975 89.3142218 33.89897949 88.8315686 34.39428711 88.33428955 C35.40721093 87.32000936 36.42264638 86.30823196 37.44042969 85.29882812 C39.00173165 83.74828028 40.55202497 82.18729497 42.1015625 80.625 C43.08790061 79.63998266 44.0748585 78.65558547 45.0625 77.671875 C45.96097656 76.7756543 46.85945313 75.87943359 47.78515625 74.95605469 C50 73 50 73 52 73 C52.20625 72.46375 52.4125 71.9275 52.625 71.375 C54.53250426 68.08021991 57.04819384 65.40636372 60 63 C60.66 63 61.32 63 62 63 C61.67 42.87 61.34 22.74 61 2 C56.68035156 6.33125 52.36070312 10.6625 47.91015625 15.125 C45.18061278 17.85964998 42.45092439 20.59415212 39.72070312 23.328125 C35.38242683 27.67239069 31.04471252 32.01720786 26.71020508 36.36523438 C23.21757521 39.86868989 19.72254366 43.36973249 16.22579765 46.86907959 C14.88881129 48.20792079 13.55270869 49.5476451 12.21748543 50.88824463 C10.35439988 52.75853633 8.48826227 54.62572885 6.62133789 56.4921875 C6.06388885 57.05323181 5.50643982 57.61427612 4.93209839 58.19232178 C1.11405216 62 1.11405216 62 0 62 C0 41.54 0 21.08 0 0 Z " fill="#F1F1F1" transform="translate(292,142)"/>
<path d="M0 0 C5.61 0 11.22 0 17 0 C17 3.96 17 7.92 17 12 C18.55589844 11.95617187 20.11179687 11.91234375 21.71484375 11.8671875 C39.09457199 11.75157643 39.09457199 11.75157643 43.53125 15.1875 C49 21.29545455 49 21.29545455 49 26 C37.45 26 25.9 26 14 26 C13.67 29.3 13.34 32.6 13 36 C23.23 36 33.46 36 44 36 C44 44.26416434 43.92680415 51.36224445 42.5 59.3125 C42.35691406 60.16005859 42.21382813 61.00761719 42.06640625 61.88085938 C41.72041596 63.92220209 41.36165689 65.96137457 41 68 C36.38 68 31.76 68 27 68 C28.22655025 70.48049244 29.45569475 72.95961724 30.6875 75.4375 C31.05037109 76.1687207 31.41324219 76.89994141 31.78710938 77.65332031 C34.09354353 82.27233365 36.50387019 86.78926019 39.1875 91.203125 C40 93 40 93 40 97 C34.39 97 28.78 97 23 97 C18.66666667 88.33333333 14.33333333 79.66666667 10 71 C9.10482411 73.68552767 8.75086825 75.77159072 8.5 78.5625 C8.4175 79.44164062 8.335 80.32078125 8.25 81.2265625 C8.1675 82.14179688 8.085 83.05703125 8 84 C7.83659297 85.81279678 7.67005841 87.62531509 7.5 89.4375 C7.4278125 90.24058594 7.355625 91.04367187 7.28125 91.87109375 C7 94 7 94 6 97 C0.39 97 -5.22 97 -11 97 C-10.33687498 87.27416631 -9.27714932 77.65921673 -8 68 C-12.29 68 -16.58 68 -21 68 C-21.13277344 69.26714844 -21.26554687 70.53429687 -21.40234375 71.83984375 C-21.9870894 77.10255464 -22.76018157 82.32924548 -23.5625 87.5625 C-24.036875 90.676875 -24.51125 93.79125 -25 97 C-34.24 97 -43.48 97 -53 97 C-53 95 -53 95 -51.70703125 93.6953125 C-50.76923828 92.91800781 -50.76923828 92.91800781 -49.8125 92.125 C-45.94766261 88.84366382 -42.21137221 85.45201556 -38.5 82 C-33.73731287 77.58113955 -28.91980191 73.24453498 -24 69 C-30.93 68.505 -30.93 68.505 -38 68 C-38.09322887 61.088633 -37.78765076 54.370932 -37.0625 47.5 C-36.97548828 46.60796875 -36.88847656 45.7159375 -36.79882812 44.796875 C-36.13035714 38.26071429 -36.13035714 38.26071429 -35 36 C-24.44 36 -13.88 36 -3 36 C-3 32.7 -3 29.4 -3 26 C-3.76554199 26.05760498 -4.53108398 26.11520996 -5.31982422 26.17456055 C-28.62624069 27.70310967 -28.62624069 27.70310967 -34.01953125 23.62109375 C-36.91163589 20.72462331 -40 17.2463369 -40 13 C-27.13 13 -14.26 13 -1 13 C-0.505 6.565 -0.505 6.565 0 0 Z " fill="#E9E9E9" transform="translate(385,383)"/>
<path d="M0 0 C0.69771011 0.00359528 1.39542023 0.00719055 2.11427307 0.01089478 C2.84593689 0.01074875 3.57760071 0.01060272 4.33143616 0.01045227 C6.76094989 0.0111515 9.19038789 0.01894432 11.61988831 0.02676392 C13.29997719 0.02862806 14.98006662 0.03005198 16.66015625 0.03105164 C21.09071849 0.03487709 25.52124815 0.04470761 29.95179749 0.05575562 C34.46941182 0.06596914 38.98703139 0.07054913 43.50465393 0.07559204 C52.37511098 0.08632986 61.24554381 0.10340661 70.11598206 0.12442017 C69.97446377 2.20805106 69.82760269 4.29131955 69.67848206 6.37442017 C69.55666565 8.11465454 69.55666565 8.11465454 69.43238831 9.89004517 C69.18197919 12.44978279 68.7794333 14.66031658 68.11598206 17.12442017 C67.81498479 20.78237303 67.60855207 24.44075087 67.39723206 28.10488892 C67.11598206 31.12442017 67.11598206 31.12442017 66.11598206 32.12442017 C63.93305432 32.35923709 61.74395031 32.53805339 59.55348206 32.68692017 C58.35594299 32.77070923 57.15840393 32.85449829 55.92457581 32.94082642 C54.99773987 33.00141235 54.07090393 33.06199829 53.11598206 33.12442017 C53.66125549 33.79086548 54.20652893 34.45731079 54.76832581 35.14395142 C55.52242737 36.0656311 56.27652893 36.98731079 57.05348206 37.93692017 C58.2774469 39.43158813 58.2774469 39.43158813 59.52613831 40.95645142 C61.22597288 43.03359921 62.92022975 45.11494119 64.61207581 47.19863892 C65.39711487 48.16414673 66.18215393 49.12965454 66.99098206 50.12442017 C67.71027893 51.01129517 68.42957581 51.89817017 69.17066956 52.81192017 C71.00298559 55.08784555 71.00298559 55.08784555 72.87379456 56.74942017 C74.11598206 58.12442017 74.11598206 58.12442017 74.11598206 61.12442017 C65.20598206 61.12442017 56.29598206 61.12442017 47.11598206 61.12442017 C47.11598206 50.99942017 47.11598206 50.99942017 47.77223206 46.87051392 C47.90758362 45.99717407 48.04293518 45.12383423 48.18238831 44.22402954 C48.32547424 43.34553345 48.46856018 42.46703735 48.61598206 41.56192017 C48.75906799 40.64861938 48.90215393 39.7353186 49.04957581 38.79434204 C49.39893837 36.57006707 49.75658878 34.34709644 50.11598206 32.12442017 C45.82598206 32.12442017 41.53598206 32.12442017 37.11598206 32.12442017 C35.9373469 41.78236257 34.85299925 51.42036042 34.11598206 61.12442017 C28.50598206 61.12442017 22.89598206 61.12442017 17.11598206 61.12442017 C17.11598206 55.09859771 17.44549255 50.71612179 18.67848206 45.03067017 C19.23300078 41.34708149 19.17964145 37.84849497 19.11598206 34.12442017 C18.51012268 34.98422485 17.90426331 35.84402954 17.28004456 36.72988892 C15.98600737 38.56447989 14.68342671 40.39064587 13.3584137 42.20303345 C11.03437897 45.38362839 8.82478144 48.55433644 6.82301331 51.94863892 C1.51839823 60.48985131 1.51839823 60.48985131 -2.98216248 61.67861938 C-8.016098 62.23251176 -12.8826272 61.80326323 -17.88401794 61.12442017 C-16.1516187 57.25983724 -13.72403973 53.91930184 -11.25901794 50.49942017 C-10.81896423 49.88566528 -10.37891052 49.2719104 -9.92552185 48.63955688 C-6.08510861 43.32280736 -2.0376007 38.20102131 2.11598206 33.12442017 C-1.51401794 32.79442017 -5.14401794 32.46442017 -8.88401794 32.12442017 C-7.40687971 0.0160996 -7.40687971 0.0160996 0 0 Z " fill="#E9E9E9" transform="translate(453.88401794433594,418.8755798339844)"/>
<path d="M0 0 C0.33 0 0.66 0 1 0 C1 20.46 1 40.92 1 62 C22.12 61.67 43.24 61.34 65 61 C65.66 59.68 66.32 58.36 67 57 C68.65625 55.078125 68.65625 55.078125 70.5 53.25 C71.1084375 52.63640625 71.716875 52.0228125 72.34375 51.390625 C74 50 74 50 76 50 C76.33 49.01 76.66 48.02 77 47 C77.66 47 78.32 47 79 47 C79.268125 46.401875 79.53625 45.80375 79.8125 45.1875 C80.99917406 43.00152146 82.09599113 41.58667406 84 40 C84.66 40 85.32 40 86 40 C86.37125 39.071875 86.37125 39.071875 86.75 38.125 C88.23740369 35.59641373 89.43678009 35.28160996 92 34 C93.09166275 32.06669397 93.09166275 32.06669397 94 30 C95.5 28.25 95.5 28.25 97 27 C97.66 27 98.32 27 99 27 C99.2475 26.38125 99.495 25.7625 99.75 25.125 C101.23740369 22.59641373 102.43678009 22.28160996 105 21 C106.09166275 19.06669397 106.09166275 19.06669397 107 17 C108.5 15.25 108.5 15.25 110 14 C110.66 14 111.32 14 112 14 C112.226875 13.44828125 112.45375 12.8965625 112.6875 12.328125 C114.38725926 9.31307583 116.54804816 7.18769631 119 4.75 C120.3303125 3.41195313 120.3303125 3.41195313 121.6875 2.046875 C124 0 124 0 126 0 C126 20.79 126 41.58 126 63 C84.42 63 42.84 63 0 63 C0 42.21 0 21.42 0 0 Z " fill="#E3E3E3" transform="translate(291,266)"/>
<path d="M0 0 C41.25 0 82.5 0 125 0 C125 20.79 125 41.58 125 63 C124.34 63 123.68 63 123 63 C123 42.54 123 22.08 123 1 C85.80858355 -4.93216017 85.80858355 -4.93216017 52.19091797 7.93603516 C34.28693897 22.43949524 18.84185556 40.45505206 4.24296188 58.20338058 C3.18202108 59.48577254 2.09401199 60.74570247 1 62 C0.67 62 0.34 62 0 62 C0 41.54 0 21.08 0 0 Z " fill="#EAEAEA" transform="translate(292,142)"/>
<path d="M0 0 C5.28 0 10.56 0 16 0 C16 3.96 16 7.92 16 12 C16.86278564 11.97905273 17.72557129 11.95810547 18.61450195 11.93652344 C21.8180751 11.86832098 25.02127816 11.81818686 28.2253418 11.78027344 C29.61153338 11.76016725 30.99764025 11.73287755 32.38354492 11.69824219 C34.37641906 11.64968775 36.36991389 11.62916028 38.36328125 11.609375 C39.56251221 11.58842773 40.76174316 11.56748047 41.99731445 11.54589844 C45 12 45 12 46.91479492 13.89941406 C48 16 48 16 48 18 C49.485 18.495 49.485 18.495 51 19 C54 22.44444444 54 22.44444444 54 25 C42.81258782 25.2554045 31.62587411 25.45058591 20.43613529 25.56993389 C15.2394944 25.62723117 10.04485443 25.70487452 4.84936523 25.82983398 C-0.16937819 25.94978041 -5.18620365 26.01521082 -10.20627022 26.04364967 C-12.11661535 26.06390145 -14.0268609 26.10345362 -15.9363842 26.16303062 C-31.66320124 26.63397703 -31.66320124 26.63397703 -36.23171997 22.54824829 C-42 15.68326995 -42 15.68326995 -42 12 C-28.8 12 -15.6 12 -2 12 C-1.67 8.7 -1.34 5.4 -1 2 C-0.67 1.34 -0.34 0.68 0 0 Z " fill="#E7E7E7" transform="translate(482,384)"/>
<path d="M0 0 C13.86 0 27.72 0 42 0 C42 9 42 9 41 13 C26.81 13 12.62 13 -2 13 C-1 2 -1 2 0 0 Z " fill="#000000" transform="translate(464,428)"/>
<path d="M0 0 C1.65 0 3.3 0 5 0 C5 35.64 5 71.28 5 108 C3.35 108 1.7 108 0 108 C0 72.36 0 36.72 0 0 Z " fill="#E9E9E9" transform="translate(292,378)"/>
<path d="M0 0 C9.9 0 19.8 0 30 0 C30 0.33 30 0.66 30 1 C25.71 1 21.42 1 17 1 C16.86722656 2.26714844 16.73445313 3.53429687 16.59765625 4.83984375 C16.0129106 10.10255464 15.23981843 15.32924548 14.4375 20.5625 C13.963125 23.676875 13.48875 26.79125 13 30 C3.76 30 -5.48 30 -15 30 C-15 28 -15 28 -13.70703125 26.6953125 C-12.76923828 25.91800781 -12.76923828 25.91800781 -11.8125 25.125 C-7.94766261 21.84366382 -4.21137221 18.45201556 -0.5 15 C4.26268713 10.58113955 9.08019809 6.24453498 14 2 C7.07 1.505 7.07 1.505 0 1 C0 0.67 0 0.34 0 0 Z " fill="#E7E7E7" transform="translate(347,450)"/>
<path d="M0 0 C0.33 0 0.66 0 1 0 C1.09765625 6.15234375 1.09765625 6.15234375 1 8 C-0.87824891 9.87824891 -4.03935276 9.39102397 -6.5625 9.5625 C-7.76003906 9.64628906 -8.95757812 9.73007812 -10.19140625 9.81640625 C-11.11824219 9.87699219 -12.04507812 9.93757813 -13 10 C-12.45472656 10.66644531 -11.90945313 11.33289063 -11.34765625 12.01953125 C-10.59355469 12.94121094 -9.83945312 13.86289062 -9.0625 14.8125 C-7.83853516 16.30716797 -7.83853516 16.30716797 -6.58984375 17.83203125 C-4.89000918 19.90917904 -3.19575231 21.99052102 -1.50390625 24.07421875 C-0.71886719 25.03972656 0.06617188 26.00523437 0.875 27 C1.59429688 27.886875 2.31359375 28.77375 3.0546875 29.6875 C4.88700354 31.96342538 4.88700354 31.96342538 6.7578125 33.625 C8 35 8 35 8 38 C-0.91 38 -9.82 38 -19 38 C-19 27.86428089 -19 27.86428089 -18.37890625 23.78125 C-18.24806641 22.91242188 -18.11722656 22.04359375 -17.98242188 21.1484375 C-17.77456055 19.83746094 -17.77456055 19.83746094 -17.5625 18.5 C-17.42779297 17.59507812 -17.29308594 16.69015625 -17.15429688 15.7578125 C-16.13502385 9.13502385 -16.13502385 9.13502385 -15 8 C-12.64686445 7.92728259 -10.29166332 7.91629132 -7.9375 7.9375 C-6.64714844 7.94652344 -5.35679687 7.95554687 -4.02734375 7.96484375 C-3.02832031 7.97644531 -2.02929688 7.98804688 -1 8 C-0.67 5.36 -0.34 2.72 0 0 Z " fill="#E6E6E6" transform="translate(520,442)"/>
<path d="M0 0 C0 0.99 0 1.98 0 3 C-1.98 3.99 -1.98 3.99 -4 5 C-4 21.5 -4 38 -4 55 C36.59 55 77.18 55 119 55 C119 55.33 119 55.66 119 56 C78.08 56 37.16 56 -5 56 C-5 38.84 -5 21.68 -5 4 C-3.35 2.68 -1.7 1.36 0 0 Z " fill="#DBDBDB" transform="translate(84,261)"/>
<path d="M0 0 C5.28 0 10.56 0 16 0 C16 1.65 16 3.3 16 5 C10.72 5 5.44 5 0 5 C0 3.35 0 1.7 0 0 Z " fill="#262626" transform="translate(364,427)"/>
<path d="M0 0 C4.95 0 9.9 0 15 0 C15 1.65 15 3.3 15 5 C10.05 5 5.1 5 0 5 C0 3.35 0 1.7 0 0 Z " fill="#212121" transform="translate(397,427)"/>
<path d="M0 0 C4.62 0 9.24 0 14 0 C14 1.32 14 2.64 14 4 C9.38 4 4.76 4 0 4 C0 2.68 0 1.36 0 0 Z " fill="#000000" transform="translate(396,438)"/>
<path d="M0 0 C4.62 0 9.24 0 14 0 C14 1.32 14 2.64 14 4 C9.38 4 4.76 4 0 4 C0 2.68 0 1.36 0 0 Z " fill="#000000" transform="translate(364,438)"/>
<path d="M0 0 C9.9 0 19.8 0 30 0 C30 0.33 30 0.66 30 1 C25.71 1 21.42 1 17 1 C16.67 3.97 16.34 6.94 16 10 C15.67 10 15.34 10 15 10 C14.67 8.35 14.34 6.7 14 5 C13.01 5 12.02 5 11 5 C11.99 4.01 12.98 3.02 14 2 C7.07 1.505 7.07 1.505 0 1 C0 0.67 0 0.34 0 0 Z " fill="#D8D8D8" transform="translate(347,450)"/>
<path d="M0 0 C0 0.99 0 1.98 0 3 C-1.98 3.99 -1.98 3.99 -4 5 C-4 17.54 -4 30.08 -4 43 C-4.33 43 -4.66 43 -5 43 C-5.12366591 37.51912668 -5.21436943 32.03906643 -5.2746582 26.55712891 C-5.29979147 24.69272719 -5.33390383 22.8284239 -5.37719727 20.96435547 C-5.43790352 18.28328169 -5.46622058 15.60351098 -5.48828125 12.921875 C-5.51408768 12.08944275 -5.5398941 11.2570105 -5.56648254 10.39935303 C-5.56930051 4.57539722 -5.56930051 4.57539722 -2.46948242 1.44238281 C-1.24708862 0.72840332 -1.24708862 0.72840332 0 0 Z " fill="#D2D2D2" transform="translate(84,261)"/>
<path d="M0 0 C0.33 0.99 0.66 1.98 1 3 C-0.375 4.5 -0.375 4.5 -2 6 C-2.66 6 -3.32 6 -4 6 C-4 6.66 -4 7.32 -4 8 C-7.08225674 11.34645017 -10.40147125 14.2239921 -14 17 C-14.66 16.67 -15.32 16.34 -16 16 C-14.37660195 14.29115995 -12.70680947 12.62553283 -11 11 C-10.34 11 -9.68 11 -9 11 C-8.34 9.68 -7.68 8.36 -7 7 C-6.34 7 -5.68 7 -5 7 C-4.67 6.01 -4.34 5.02 -4 4 C-3.34 4 -2.68 4 -2 4 C-1.34 2.68 -0.68 1.36 0 0 Z " fill="#B8B8B8" transform="translate(113,231)"/>
<path d="M0 0 C0.33 0 0.66 0 1 0 C1.09765625 6.15234375 1.09765625 6.15234375 1 8 C-0.87824891 9.87824891 -4.03935276 9.39102397 -6.5625 9.5625 C-7.76003906 9.64628906 -8.95757812 9.73007812 -10.19140625 9.81640625 C-11.11824219 9.87699219 -12.04507812 9.93757813 -13 10 C-13 10.66 -13 11.32 -13 12 C-13.66 12 -14.32 12 -15 12 C-15.33 12.66 -15.66 13.32 -16 14 C-16.042721 12.33388095 -16.04063832 10.66617115 -16 9 C-15 8 -15 8 -11.83984375 7.90234375 C-9.90818359 7.91974609 -9.90818359 7.91974609 -7.9375 7.9375 C-6.64714844 7.94652344 -5.35679687 7.95554687 -4.02734375 7.96484375 C-3.02832031 7.97644531 -2.02929688 7.98804688 -1 8 C-0.67 5.36 -0.34 2.72 0 0 Z " fill="#BCBCBC" transform="translate(520,442)"/>
<path d="M0 0 C0 3 0 3 -1.875 5.1875 C-4 7 -4 7 -6 7 C-6.66 8.32 -7.32 9.64 -8 11 C-8.66 10.67 -9.32 10.34 -10 10 C-8.38405168 7.95880212 -6.7143618 5.95927063 -5 4 C-4.34 4 -3.68 4 -3 4 C-2.67 3.01 -2.34 2.02 -2 1 C-1.34 0.67 -0.68 0.34 0 0 Z " fill="#C8C8C8" transform="translate(196,149)"/>
<path d="M0 0 C0 3.77910478 -0.99703962 4.46106101 -3.5 7.1875 C-4.1496875 7.90292969 -4.799375 8.61835938 -5.46875 9.35546875 C-5.9740625 9.89816406 -6.479375 10.44085938 -7 11 C-7.99 10.67 -8.98 10.34 -10 10 C-8.71034824 8.62437146 -7.37310707 7.29233607 -6 6 C-5.34 6 -4.68 6 -4 6 C-3.71125 5.38125 -3.4225 4.7625 -3.125 4.125 C-2 2 -2 2 0 0 Z " fill="#BEBEBE" transform="translate(387,294)"/>
<path d="M0 0 C0.33 0.99 0.66 1.98 1 3 C-1.33333333 5.33333333 -3.66666667 7.66666667 -6 10 C-6.99 9.67 -7.98 9.34 -9 9 C-8.38125 8.7525 -7.7625 8.505 -7.125 8.25 C-4.64931313 6.79371361 -4.04874998 5.62187494 -3 3 C-2.34 3 -1.68 3 -1 3 C-0.67 2.01 -0.34 1.02 0 0 Z " fill="#C2C2C2" transform="translate(139,205)"/>
<path d="M0 0 C0 3.66184524 -0.919642 5.02806 -3 8 C-5.1875 9.8125 -5.1875 9.8125 -7 11 C-7.66 10.34 -8.32 9.68 -9 9 C-8.0409375 8.5978125 -8.0409375 8.5978125 -7.0625 8.1875 C-4.66868314 7.11332248 -4.66868314 7.11332248 -4 4 C-3.34 4 -2.68 4 -2 4 C-1.34 2.68 -0.68 1.36 0 0 Z " fill="#BFBFBF" transform="translate(172,172)"/>
<path d="M0 0 C0.33 0.99 0.66 1.98 1 3 C-1.64 5.31 -4.28 7.62 -7 10 C-7.66 9.67 -8.32 9.34 -9 9 C-7.37660195 7.29115995 -5.70680947 5.62553283 -4 4 C-3.34 4 -2.68 4 -2 4 C-1.34 2.68 -0.68 1.36 0 0 Z " fill="#B6B6B6" transform="translate(96,248)"/>
<path d="M0 0 C0 4.1041911 -1.45843064 5.84021107 -4 9 C-6.75 9.875 -6.75 9.875 -9 10 C-8.34 9.01 -7.68 8.02 -7 7 C-6.34 7 -5.68 7 -5 7 C-4.731875 6.401875 -4.46375 5.80375 -4.1875 5.1875 C-3.01506533 3.02775192 -1.80630718 1.64209744 0 0 Z " fill="#C2C2C2" transform="translate(323,234)"/>
<path d="M0 0 C-0.33 2.97 -0.66 5.94 -1 9 C-1.33 9 -1.66 9 -2 9 C-2.33 7.35 -2.66 5.7 -3 4 C-3.99 4 -4.98 4 -6 4 C-2.25 0 -2.25 0 0 0 Z " fill="#B1B1B1" transform="translate(364,451)"/>
<path d="M0 0 C0.33 0.99 0.66 1.98 1 3 C-1.31 4.98 -3.62 6.96 -6 9 C-6.66 8.67 -7.32 8.34 -8 8 C-6.50260417 6.79557292 -5.00520833 5.59114583 -3.5078125 4.38671875 C-1.74707893 2.87729455 -1.74707893 2.87729455 0 0 Z " fill="#BABABA" transform="translate(162,182)"/>
<path d="M0 0 C0.33 0.99 0.66 1.98 1 3 C-0.40445835 5.2636564 -2.1967913 7.0208685 -4 9 C-4.66 8.67 -5.32 8.34 -6 8 C-4.02 5.36 -2.04 2.72 0 0 Z " fill="#C0C0C0" transform="translate(449,461)"/>
</svg>
