<?xml version="1.0" encoding="UTF-8"?>
<svg version="1.1" xmlns="http://www.w3.org/2000/svg" width="200" height="200">
<path d="M0 0 C66 0 132 0 200 0 C200 66 200 132 200 200 C134 200 68 200 0 200 C0 134 0 68 0 0 Z " fill="#FDFDFD" transform="translate(0,0)"/>
<path d="M0 0 C2.66666667 0 5.33333333 0 8 0 C9.7015625 -0.0309375 9.7015625 -0.0309375 11.4375 -0.0625 C15 0 15 0 18 1 C18.66 0.67 19.32 0.34 20 0 C23.1061414 -0.27009925 25.31205773 -0.30698499 28.1796875 0.97265625 C31.0688361 4.190399 30.42744855 7.52769643 30.25 11.6875 C30.23195312 12.48478516 30.21390625 13.28207031 30.1953125 14.10351562 C30.14822247 16.06952449 30.07647899 18.03491494 30 20 C28.35 20 26.7 20 25 20 C24.505 13.565 24.505 13.565 24 7 C22.68 6.67 21.36 6.34 20 6 C18.05909174 7.94090826 18.60080565 11.47293902 18.4375 14.0625 C18.35371094 15.35285156 18.26992187 16.64320312 18.18359375 17.97265625 C18.09271484 19.47119141 18.09271484 19.47119141 18 21 C16.02 21 14.04 21 12 21 C11.67 16.05 11.34 11.1 11 6 C9.68 6.33 8.36 6.66 7 7 C6.67 11.29 6.34 15.58 6 20 C4.02 20 2.04 20 0 20 C0 13.4 0 6.8 0 0 Z " fill="#0C0C0C" transform="translate(115,77)"/>
<path d="M0 0 C1.11375 0.12375 2.2275 0.2475 3.375 0.375 C4.365 0.375 5.355 0.375 6.375 0.375 C8.355 0.375 10.335 0.375 12.375 0.375 C12.375 6.975 12.375 13.575 12.375 20.375 C9.70833333 20.375 7.04166667 20.375 4.375 20.375 C3.281875 20.6225 2.18875 20.87 1.0625 21.125 C-2.625 21.375 -2.625 21.375 -5.5 19.625 C-8.69468441 16.24239297 -9.04125078 13.04213039 -8.96484375 8.44921875 C-8.12397148 3.31699832 -5.21227062 0.53920041 0 0 Z " fill="#0B0B0B" transform="translate(82.625,76.625)"/>
<path d="M0 0 C3.5386994 1.65139305 4.81070153 2.71605229 7 6 C7 7.98 7 9.96 7 12 C2.38 12 -2.24 12 -7 12 C-6.67 12.99 -6.34 13.98 -6 15 C-4.00045254 15.04254356 -1.99958364 15.04080783 0 15 C0.33 14.67 0.66 14.34 1 14 C2.99958364 13.95919217 5.00045254 13.95745644 7 14 C5.66035678 16.54532213 4.57229129 18.57078153 2.25 20.3125 C-1.0210618 21.31199111 -3.59742588 21.3581657 -7 21 C-9.75329021 19.20437595 -11.52627461 17.94745078 -13 15 C-13.55512815 10.36786507 -13.6364242 7.01827873 -11.125 3 C-7.48309983 -0.42767075 -4.9451721 -0.3352659 0 0 Z " fill="#0C0C0C" transform="translate(64,77)"/>
<path d="M0 0 C2.8100346 1.79363911 4.50940468 3.01880935 6 6 C6 7.98 6 9.96 6 12 C1.38 12 -3.24 12 -8 12 C-7.67 12.99 -7.34 13.98 -7 15 C-5.00045254 15.04254356 -2.99958364 15.04080783 -1 15 C-0.67 14.67 -0.34 14.34 0 14 C1.99958364 13.95919217 4.00045254 13.95745644 6 14 C4.13529649 17.54293666 2.90635582 19.77228817 -1 21 C-5.63199447 21.49276537 -8.30966775 20.87025842 -12 18 C-14.34113009 14.98997559 -14.41216607 11.72258458 -14.328125 7.96875 C-13.80947233 4.85683396 -12.21445226 3.14932131 -10 1 C-6.79826746 -0.60086627 -3.47422941 -0.49917089 0 0 Z " fill="#0B0B0B" transform="translate(163,77)"/>
<path d="M0 0 C2.5 1.3125 2.5 1.3125 4 3 C4 3.99 4 4.98 4 6 C0.14354879 6.22036864 -2.49223216 5.60355101 -6 4 C-5.67 4.99 -5.34 5.98 -5 7 C-3.19000929 7.72980677 -3.19000929 7.72980677 -1.0625 8.0625 C2.79820628 8.79820628 2.79820628 8.79820628 5 11 C5.5565371 16.23144876 5.5565371 16.23144876 3.6875 18.8125 C-0.00955327 21.41413008 -3.62760668 21.38354327 -8 21 C-10.4375 19.1875 -10.4375 19.1875 -12 17 C-12 16.01 -12 15.02 -12 14 C-7.91281305 13.75957724 -4.82320557 14.57741188 -1 16 C-1 15.01 -1 14.02 -1 13 C-2.8871875 12.8453125 -2.8871875 12.8453125 -4.8125 12.6875 C-7.28323398 12.35894495 -8.85994407 12.07639415 -11.0625 10.875 C-12.62837577 7.74324846 -11.8372211 5.2890829 -11 2 C-7.30628421 -0.46247719 -4.28710603 -0.56931388 0 0 Z " fill="#0F0F0F" transform="translate(43,77)"/>
<path d="M0 0 C2.5 0.25 2.5 0.25 4.5 2.25 C4.75 5.25 4.75 5.25 4.5 8.25 C2.5 10.25 2.5 10.25 0 10.5 C-2.5 10.25 -2.5 10.25 -4.5 8.25 C-4.75 5.25 -4.75 5.25 -4.5 2.25 C-2.5 0.25 -2.5 0.25 0 0 Z " fill="#EEEEEE" transform="translate(84.5,81.75)"/>
<path d="M0 0 C1.39456452 0.00667256 2.78911118 0.01863093 4.18359375 0.03515625 C4.89451172 0.03966797 5.60542969 0.04417969 6.33789062 0.04882812 C8.09899388 0.06064761 9.86005411 0.07858362 11.62109375 0.09765625 C11.95109375 1.41765625 12.28109375 2.73765625 12.62109375 4.09765625 C7.41380962 5.58545171 1.99920965 5.09765625 -3.37890625 5.09765625 C-3.94140625 3.16015625 -3.94140625 3.16015625 -4.37890625 1.09765625 C-3.37890625 0.09765625 -3.37890625 0.09765625 0 0 Z " fill="#7F7F7F" transform="translate(142.37890625,109.90234375)"/>
<path d="M0 0 C1.32 0 2.64 0 4 0 C4 3.96 4 7.92 4 12 C2.68 12 1.36 12 0 12 C0 8.04 0 4.08 0 0 Z " fill="#4E4E4E" transform="translate(103,90)"/>
<path d="M0 0 C1.32 0 2.64 0 4 0 C4 3.96 4 7.92 4 12 C2.68 12 1.36 12 0 12 C0 8.04 0 4.08 0 0 Z " fill="#4E4E4E" transform="translate(103,73)"/>
<path d="M0 0 C3.96 0 7.92 0 12 0 C12.33 1.65 12.66 3.3 13 5 C11.35333797 4.8864371 9.70763918 4.75882619 8.0625 4.625 C6.68771484 4.52058594 6.68771484 4.52058594 5.28515625 4.4140625 C4.15400391 4.20910156 4.15400391 4.20910156 3 4 C2.67 3.34 2.34 2.68 2 2 C1.34 2.66 0.68 3.32 0 4 C0 2.68 0 1.36 0 0 Z " fill="#878787" transform="translate(85,110)"/>
<path d="M0 0 C1.051875 0.5878125 1.051875 0.5878125 2.125 1.1875 C1.465 2.5075 0.805 3.8275 0.125 5.1875 C0.125 4.1975 0.125 3.2075 0.125 2.1875 C-0.535 2.1875 -1.195 2.1875 -1.875 2.1875 C-1.875 3.1775 -1.875 4.1675 -1.875 5.1875 C-3.855 5.5175 -5.835 5.8475 -7.875 6.1875 C-8.205 4.8675 -8.535 3.5475 -8.875 2.1875 C-3.58269231 -1.0125 -3.58269231 -1.0125 0 0 Z " fill="#828282" transform="translate(43.875,108.8125)"/>
<path d="M0 0 C1.77049689 -0.05410687 3.54146849 -0.09284119 5.3125 -0.125 C6.29863281 -0.14820312 7.28476563 -0.17140625 8.30078125 -0.1953125 C11 0 11 0 14 2 C9.46298506 3.45184478 5.81938524 4.23509196 1 4 C0.67 2.68 0.34 1.36 0 0 Z " fill="#F5F5F5" transform="translate(155,89)"/>
<path d="M0 0 C0.66 0 1.32 0 2 0 C2 0.66 2 1.32 2 2 C3.32 2 4.64 2 6 2 C5.67 3.32 5.34 4.64 5 6 C3.35 6.33 1.7 6.66 0 7 C-0.33 6.01 -0.66 5.02 -1 4 C-1.66 4.66 -2.32 5.32 -3 6 C-3 4.68 -3 3.36 -3 2 C-2.01 2 -1.02 2 0 2 C0 1.34 0 0.68 0 0 Z " fill="#8C8C8C" transform="translate(102,108)"/>
<path d="M0 0 C0.33 1.32 0.66 2.64 1 4 C-0.9375 4.5625 -0.9375 4.5625 -3 5 C-3.33 4.67 -3.66 4.34 -4 4 C-4.66 4.66 -5.32 5.32 -6 6 C-6 5.34 -6 4.68 -6 4 C-7.32 4.33 -8.64 4.66 -10 5 C-10.33 3.68 -10.66 2.36 -11 1 C-9.54182203 0.83197949 -8.0834516 0.66562857 -6.625 0.5 C-5.81289062 0.4071875 -5.00078125 0.314375 -4.1640625 0.21875 C-2 0 -2 0 0 0 Z " fill="#585858" transform="translate(107,119)"/>
<path d="M0 0 C5.75 -0.125 5.75 -0.125 8 1 C8.625 3.5625 8.625 3.5625 9 6 C7.02 6 5.04 6 3 6 C2.87625 5.195625 2.7525 4.39125 2.625 3.5625 C2.315625 2.2940625 2.315625 2.2940625 2 1 C1.34 0.67 0.68 0.34 0 0 Z " fill="#8A8A8A" transform="translate(65,118)"/>
<path d="M0 0 C0.721875 0.144375 1.44375 0.28875 2.1875 0.4375 C3.5796875 0.7159375 3.5796875 0.7159375 5 1 C6.66666667 1.33333333 8.33333333 1.66666667 10 2 C10.33 1.34 10.66 0.68 11 0 C10.6875 1.9375 10.6875 1.9375 10 4 C6.06329512 5.31223496 3.87511856 4.24296256 0 3 C0 2.01 0 1.02 0 0 Z " fill="#D3D3D3" transform="translate(37,81)"/>
<path d="M0 0 C1.175625 0.5259375 1.175625 0.5259375 2.375 1.0625 C3.674375 1.5265625 3.674375 1.5265625 5 2 C5.66 1.67 6.32 1.34 7 1 C7.33 2.32 7.66 3.64 8 5 C5.36 5 2.72 5 0 5 C-0.5625 3.0625 -0.5625 3.0625 -1 1 C-0.67 0.67 -0.34 0.34 0 0 Z " fill="#ABABAB" transform="translate(139,110)"/>
<path d="M0 0 C1.33599921 0.32248257 2.66893378 0.65772583 4 1 C5.32 1 6.64 1 8 1 C7.67 1.99 7.34 2.98 7 4 C7 3.34 7 2.68 7 2 C6.34 2 5.68 2 5 2 C5 2.66 5 3.32 5 4 C3.35 4.33 1.7 4.66 0 5 C-0.5625 3.0625 -0.5625 3.0625 -1 1 C-0.67 0.67 -0.34 0.34 0 0 Z " fill="#838383" transform="translate(87,119)"/>
<path d="M0 0 C2.375 0.3125 2.375 0.3125 5 1 C5.66 1.99 6.32 2.98 7 4 C4.03 4 1.06 4 -2 4 C-1.34 2.68 -0.68 1.36 0 0 Z " fill="#E5E5E5" transform="translate(157,81)"/>
<path d="M0 0 C0.66 0 1.32 0 2 0 C2 0.66 2 1.32 2 2 C3.32 2 4.64 2 6 2 C5.67 3.32 5.34 4.64 5 6 C4.67 5.34 4.34 4.68 4 4 C3.67 4.99 3.34 5.98 3 7 C2.01 7 1.02 7 0 7 C0 4.69 0 2.38 0 0 Z " fill="#8D8D8D" transform="translate(116,108)"/>
<path d="M0 0 C1.65 0.33 3.3 0.66 5 1 C5.33 1.99 5.66 2.98 6 4 C3.36 4 0.72 4 -2 4 C-1.34 2.68 -0.68 1.36 0 0 Z " fill="#E8E8E8" transform="translate(59,81)"/>
<path d="M0 0 C0.33 0.99 0.66 1.98 1 3 C-1.31 3.33 -3.62 3.66 -6 4 C-6.33 2.68 -6.66 1.36 -7 0 C-4.3333581 -1.33332095 -2.83319697 -0.67102033 0 0 Z " fill="#787878" transform="translate(54,111)"/>
<path d="M0 0 C1.65 0 3.3 0 5 0 C5.33 1.32 5.66 2.64 6 4 C4.68 4 3.36 4 2 4 C1.01 4.33 0.02 4.66 -1 5 C-0.67 3.35 -0.34 1.7 0 0 Z " fill="#757575" transform="translate(163,110)"/>
<path d="M0 0 C1.65 0 3.3 0 5 0 C5.33 1.65 5.66 3.3 6 5 C4.02 5 2.04 5 0 5 C0 3.35 0 1.7 0 0 Z " fill="#707070" transform="translate(48,119)"/>
<path d="M0 0 C0.99 0 1.98 0 3 0 C3 1.98 3 3.96 3 6 C1.68 5.67 0.36 5.34 -1 5 C-0.67 3.35 -0.34 1.7 0 0 Z " fill="#747474" transform="translate(110,110)"/>
<path d="M0 0 C2.31 0 4.62 0 7 0 C7.33 1.32 7.66 2.64 8 4 C6.35 4 4.7 4 3 4 C2.67 3.34 2.34 2.68 2 2 C1.34 2.66 0.68 3.32 0 4 C0 2.68 0 1.36 0 0 Z " fill="#626262" transform="translate(85,110)"/>
<path d="M0 0 C1.65 0 3.3 0 5 0 C5.33 1.65 5.66 3.3 6 5 C5.67 4.01 5.34 3.02 5 2 C4.34 2 3.68 2 3 2 C2.67 2.99 2.34 3.98 2 5 C1.34 5 0.68 5 0 5 C0 3.35 0 1.7 0 0 Z " fill="#727272" transform="translate(117,119)"/>
<path d="M0 0 C2.31 0 4.62 0 7 0 C6.67 1.32 6.34 2.64 6 4 C4.68 4 3.36 4 2 4 C2 3.01 2 2.02 2 1 C1.34 0.67 0.68 0.34 0 0 Z " fill="#808080" transform="translate(54,110)"/>
<path d="M0 0 C0.99 0 1.98 0 3 0 C3 1.65 3 3.3 3 5 C1.68 4.67 0.36 4.34 -1 4 C-0.67 2.68 -0.34 1.36 0 0 Z " fill="#7D7D7D" transform="translate(126,110)"/>
<path d="M0 0 C0.99 0 1.98 0 3 0 C3 1.65 3 3.3 3 5 C1.68 4.67 0.36 4.34 -1 4 C-0.67 2.68 -0.34 1.36 0 0 Z " fill="#828282" transform="translate(62,110)"/>
<path d="M0 0 C2.97 0.495 2.97 0.495 6 1 C6 1.99 6 2.98 6 4 C4.35 4 2.7 4 1 4 C0.67 2.68 0.34 1.36 0 0 Z " fill="#EDEDED" transform="translate(36,89)"/>
<path d="M0 0 C0.99 0.33 1.98 0.66 3 1 C3 2.32 3 3.64 3 5 C1.68 5 0.36 5 -1 5 C-0.67 3.35 -0.34 1.7 0 0 Z " fill="#777777" transform="translate(32,119)"/>
<path d="M0 0 C0.33 1.32 0.66 2.64 1 4 C-0.32 4.33 -1.64 4.66 -3 5 C-3 4.01 -3 3.02 -3 2 C-3.66 1.67 -4.32 1.34 -5 1 C-2 0 -2 0 0 0 Z " fill="#898989" transform="translate(107,119)"/>
<path d="M0 0 C0.99 0 1.98 0 3 0 C2.67 1.65 2.34 3.3 2 5 C1.01 4.67 0.02 4.34 -1 4 C-0.67 2.68 -0.34 1.36 0 0 Z " fill="#797979" transform="translate(69,110)"/>
</svg>
